<?xml version="1.0" encoding="UTF-8"?>
<!DOCTYPE svg PUBLIC "-//W3C//DTD SVG 1.1//EN" "http://www.w3.org/Graphics/SVG/1.1/DTD/svg11.dtd">
<svg version="1.2" xmlns="http://www.w3.org/2000/svg" xmlns:xlink="http://www.w3.org/1999/xlink" x="0" y="0" width="901" height="245" viewBox="0 0 901 245">
<style type="text/css"><![CDATA[
text { font:12px Dialog; }
]]></style>
<rect x="-1422" y="-1022" width="3744" height="2400" style="fill:rgb(255,255,255);stroke:none" />
<clipPath id="clip1"><path d="M14,15 L886,15 L886,215 L14,215 Z M293,18 L293,86 L607,86 L607,18 Z" /></clipPath>
<path d="M450,96 L308,96 C303.5839844,96 300,99.5839996 300,104 L300,122" style="fill:none;stroke:rgb(85,142,213)" clip-path="url(#clip1)" />
<clipPath id="clip2"><path d="M14,15 L886,15 L886,215 L14,215 Z M293,18 L293,86 L607,86 L607,18 Z" /></clipPath>
<path d="M450,96 L686,96 C690.4160156,96 694,99.5839996 694,104 L694,122" style="fill:none;stroke:rgb(85,142,213)" clip-path="url(#clip2)" />
<clipPath id="clip3"><path d="M14,15 L886,15 L886,215 L14,215 Z M293,18 L293,86 L607,86 L607,18 Z" /></clipPath>
<path d="M450,96 L835.6030273,96 C840.019043,96 843.6030273,99.5839996 843.6030273,104 L843.6030273,122" style="fill:none;stroke:rgb(85,142,213)" clip-path="url(#clip3)" />
<clipPath id="clip4"><path d="M13,14 L887,14 L887,216 L13,216 L13,14 Z" /></clipPath>
<path d="M450,86 L450,96" style="fill:none;stroke:rgb(85,142,213)" clip-path="url(#clip4)" />
<clipPath id="clip5"><path d="M289,14 L612,14 L612,91 L289,91 L289,14 Z" /></clipPath>
<path d="M293,18 L293,86 L607,86 L607,18 Z" style="fill:rgb(220,230,242);stroke:none" clip-path="url(#clip5)" />
<clipPath id="clip6"><path d="M289,14 L612,14 L612,91 L289,91 L289,14 Z" /></clipPath>
<path d="M293,18 L293,86 L607,86 L607,18 Z" style="fill:none;stroke:rgb(85,142,213);stroke-width:5" clip-path="url(#clip6)" />
<clipPath id="clip7"><path d="M325,34 L576,34 L576,71 L325,71 L325,34 Z" /></clipPath>
<path d="M341.5566406,53.3964844 C341.5566406,55.7949219 341.0039063,57.6347656 339.8984375,58.9160156 C338.7929688,60.1972656 337.2089844,60.8378906 335.1464844,60.8378906 C334.2324219,60.8378906 333.3847656,60.6816406 332.6035156,60.3691406 L332.6035156,56.7246094 C333.2753906,57.2324219 334.0410156,57.4863281 334.9003906,57.4863281 C336.7597656,57.4863281 337.6894531,56.0761719 337.6894531,53.2558594 L337.6894531,42.3691406 L341.5566406,42.3691406 Z M345.8574219,48.3457031 C346.4433594,48.0175781 347.2265625,47.7519531 348.2070313,47.5488281 C349.1875,47.3457031 350.0253906,47.2441406 350.7207031,47.2441406 C354.3457031,47.2441406 356.1582031,49.0605469 356.1582031,52.6933594 L356.1582031,60.5214844 L352.5605469,60.5214844 L352.5605469,58.6347656 L352.5136719,58.6347656 C351.6308594,60.1035156 350.3378906,60.8378906 348.6347656,60.8378906 C347.4082031,60.8378906 346.4257813,60.4882813 345.6875,59.7890625 C344.9492188,59.0898438 344.5800781,58.1386719 344.5800781,56.9355469 C344.5800781,54.4511719 346.0605469,53.0058594 349.0214844,52.5996094 L352.5839844,52.1191406 C352.5839844,50.6113281 351.7988281,49.8574219 350.2285156,49.8574219 C348.6816406,49.8574219 347.2246094,50.3261719 345.8574219,51.2636719 Z M350.1347656,54.6503906 C348.7675781,54.8300781 348.0839844,55.4472656 348.0839844,56.5019531 C348.0839844,56.9863281 348.25,57.3769531 348.5820313,57.6738281 C348.9140625,57.9707031 349.3613281,58.1191406 349.9238281,58.1191406 C350.6972656,58.1191406 351.3339844,57.8457031 351.8339844,57.2988281 C352.3339844,56.7519531 352.5839844,56.0722656 352.5839844,55.2597656 L352.5839844,54.3339844 Z M371.9199219,47.5605469 L367.0566406,60.5214844 L362.7792969,60.5214844 L358.1503906,47.5605469 L362.2050781,47.5605469 L364.5839844,55.7167969 C364.8417969,56.6074219 364.9863281,57.3535156 365.0175781,57.9550781 L365.0761719,57.9550781 C365.1386719,57.3378906 365.2910156,56.6152344 365.5332031,55.7871094 L367.9589844,47.5605469 Z M374.3925781,48.3457031 C374.9785156,48.0175781 375.7617188,47.7519531 376.7421875,47.5488281 C377.7226563,47.3457031 378.5605469,47.2441406 379.2558594,47.2441406 C382.8808594,47.2441406 384.6933594,49.0605469 384.6933594,52.6933594 L384.6933594,60.5214844 L381.0957031,60.5214844 L381.0957031,58.6347656 L381.0488281,58.6347656 C380.1660156,60.1035156 378.8730469,60.8378906 377.1699219,60.8378906 C375.9433594,60.8378906 374.9609375,60.4882813 374.2226563,59.7890625 C373.484375,59.0898438 373.1152344,58.1386719 373.1152344,56.9355469 C373.1152344,54.4511719 374.5957031,53.0058594 377.5566406,52.5996094 L381.1191406,52.1191406 C381.1191406,50.6113281 380.3339844,49.8574219 378.7636719,49.8574219 C377.2167969,49.8574219 375.7597656,50.3261719 374.3925781,51.2636719 Z M378.6699219,54.6503906 C377.3027344,54.8300781 376.6191406,55.4472656 376.6191406,56.5019531 C376.6191406,56.9863281 376.7851563,57.3769531 377.1171875,57.6738281 C377.4492188,57.9707031 377.8964844,58.1191406 378.4589844,58.1191406 C379.2324219,58.1191406 379.8691406,57.8457031 380.3691406,57.2988281 C380.8691406,56.7519531 381.1191406,56.0722656 381.1191406,55.2597656 L381.1191406,54.3339844 Z M390.3769531,40.4472656 C391.5488281,41.8847656 392.6816406,43.3847656 393.7753906,44.9472656 L390.8925781,46.8457031 C389.9082031,45.2050781 388.8457031,43.6425781 387.7050781,42.1582031 Z M408.5175781,44.7363281 L395.4160156,44.7363281 L395.4160156,41.6894531 L408.5175781,41.6894531 Z M405.4941406,50.8066406 C406.9941406,52.8847656 408.4472656,55.1582031 409.8535156,57.6269531 L407.0175781,59.1269531 C406.7207031,58.5644531 406.4199219,58.0097656 406.1152344,57.4628906 C401.1464844,57.7519531 397.5175781,58.0488281 395.2285156,58.3535156 L393.9628906,55.7285156 C395.3769531,54.5488281 396.6542969,52.8378906 397.7949219,50.5957031 L393.9394531,50.5957031 L393.9394531,47.5488281 L409.8769531,47.5488281 L409.8769531,50.5957031 L401.6152344,50.5957031 C400.7167969,52.1582031 399.7128906,53.6503906 398.6035156,55.0722656 C400.1503906,55.0175781 402.1386719,54.9121094 404.5683594,54.7558594 C404.0371094,53.8886719 403.5019531,53.0488281 402.9628906,52.2363281 Z M410.2988281,60.0175781 L409.2441406,63.0878906 C400.3300781,63.1503906 395.2636719,63.0351563 394.0449219,62.7421875 C392.8261719,62.4492188 391.8378906,61.8066406 391.0800781,60.8144531 C390.1113281,61.7363281 389.1660156,62.6972656 388.2441406,63.6972656 L386.9316406,60.0410156 C387.6582031,59.3769531 388.4316406,58.7246094 389.2519531,58.0839844 L389.2519531,51.6035156 L387.1191406,51.6035156 L387.1191406,48.5097656 L392.4863281,48.5097656 L392.4863281,58.0488281 C392.9863281,58.6503906 393.5507813,59.1152344 394.1796875,59.4433594 C394.8085938,59.7714844 395.4609375,59.9746094 396.1367188,60.0527344 C396.8125,60.1308594 398.2558594,60.1660156 400.4667969,60.1582031 C402.9042969,60.1582031 406.1816406,60.1113281 410.2988281,60.0175781 Z M417.5761719,40.4707031 C418.5761719,41.1582031 419.5136719,41.8300781 420.3886719,42.4863281 C418.7480469,44.3925781 416.5683594,46.4316406 413.8496094,48.6035156 C413.2714844,47.7285156 412.5761719,46.8066406 411.7636719,45.8378906 C414.3886719,43.8378906 416.3261719,42.0488281 417.5761719,40.4707031 Z M421.7949219,42.1347656 L433.9824219,42.1347656 L433.9824219,45.1816406 L421.7949219,45.1816406 Z M417.9511719,46.5644531 L420.6933594,48.3222656 C420.0058594,49.3300781 419.2558594,50.3183594 418.4433594,51.2871094 L418.4433594,63.4394531 L415.1855469,63.4394531 L415.1855469,54.8027344 C414.4667969,55.4980469 413.7167969,56.1816406 412.9355469,56.8535156 C412.6230469,55.9785156 412.1933594,54.8925781 411.6464844,53.5957031 C414.0527344,51.5175781 416.1542969,49.1738281 417.9511719,46.5644531 Z M421.0214844,48.8378906 L435.0136719,48.8378906 L435.0136719,51.8847656 L431.3574219,51.8847656 L431.3574219,59.4316406 C431.3574219,60.6816406 431.0664063,61.6367188 430.484375,62.296875 C429.9023438,62.9570313 429.078125,63.3222656 428.0117188,63.3925781 C426.9453125,63.4628906 425.3652344,63.5097656 423.2714844,63.5332031 C423.0527344,62.5019531 422.7636719,61.4082031 422.4042969,60.2519531 C424.0292969,60.3613281 425.3105469,60.4160156 426.2480469,60.4160156 C427.3886719,60.4160156 427.9589844,59.8144531 427.9589844,58.6113281 L427.9589844,51.8847656 L421.0214844,51.8847656 Z M447.4472961,44.6191406 L454.3847961,44.6191406 L454.3847961,40.6816406 L457.7363586,40.6816406 L457.7363586,44.6191406 L459.7051086,44.6191406 L459.7051086,47.7363281 L457.7363586,47.7363281 L457.7363586,59.3378906 C457.7363586,60.6503906 457.4433899,61.6425781 456.8574524,62.3144531 C456.2715149,62.9863281 455.4609375,63.3417969 454.4258118,63.3808594 C453.390625,63.4199219 451.8535461,63.4394531 449.8144836,63.4394531 C449.5644531,62.0175781 449.2988586,60.8769531 449.0176086,60.0175781 C451.2363281,60.0800781 452.4550781,60.1113281 452.6738586,60.1113281 C453.8144531,60.1113281 454.3847961,59.5175781 454.3847961,58.3300781 L454.3847961,47.7363281 L447.4472961,47.7363281 Z M437.5332336,62.3847656 L437.5332336,42.1582031 L446.7676086,42.1582031 L446.7676086,62.2441406 L443.6738586,62.2441406 L443.6738586,60.6269531 L440.6269836,60.6269531 L440.6269836,62.3847656 Z M443.6738586,45.2519531 L440.6269836,45.2519531 L440.6269836,49.8925781 L443.6738586,49.8925781 Z M440.6269836,57.5332031 L443.6738586,57.5332031 L443.6738586,52.8925781 L440.6269836,52.8925781 Z M449.5097961,49.0019531 C450.5722656,50.3300781 451.9785156,52.2207031 453.7285461,54.6738281 L450.8926086,56.5253906 C449.4707031,54.1660156 448.1972961,52.1972656 447.0722961,50.6191406 Z M462.5996399,44.2207031 L471.2949524,44.2207031 C471.3339844,42.8847656 471.3574219,41.6269531 471.3652649,40.4472656 L474.4355774,40.4472656 C474.4355774,41.8222656 474.4238586,43.0800781 474.4004211,44.2207031 L482.9902344,44.2207031 L482.9902344,59.5253906 C482.9902344,60.6972656 482.7226563,61.59375 482.1875,62.2148438 C481.6523438,62.8359375 480.8691711,63.1894531 479.8379211,63.2753906 C478.8066711,63.3613281 477.3887024,63.3847656 475.5840149,63.3457031 C475.4121094,62.4550781 475.1777344,61.4316406 474.8808899,60.2753906 C475.9277344,60.3535156 476.9433899,60.3925781 477.9277649,60.3925781 C478.4668274,60.3925781 478.8457031,60.3574219 479.0644836,60.2871094 C479.2832031,60.2167969 479.4609375,60.0625 479.5976868,59.8242188 C479.734375,59.5859375 479.8027649,59.2753906 479.8027649,58.8925781 L479.8027649,47.2910156 L474.3183899,47.2910156 C474.2246399,48.5410156 474.0878906,49.6191406 473.9082336,50.5253906 C475.5254211,51.6972656 477.4355774,53.1816406 479.6387024,54.9785156 L477.2715149,57.3457031 C476.2324219,56.2753906 474.7402649,54.8808594 472.7949524,53.1621094 C471.7949219,54.8574219 470.3027344,56.3613281 468.3183899,57.6738281 C467.5215149,56.7363281 466.7167969,55.9160156 465.9043274,55.2128906 C469.2324219,53.2128906 470.9980469,50.5722656 471.2012024,47.2910156 L465.7871399,47.2910156 L465.7871399,63.5332031 L462.5996399,63.5332031 Z M491.9785156,63.6972656 L488.8144531,63.6972656 L488.8144531,54.1347656 C488.1191406,54.8769531 487.3925781,55.5722656 486.6347656,56.2207031 L485.8378906,52.6113281 C487.8691406,50.4863281 489.5019531,48.1503906 490.7363281,45.6035156 L485.9550781,45.6035156 L485.9550781,42.6738281 L491.9433594,42.6738281 C492.1933594,41.9472656 492.4160156,41.2050781 492.6113281,40.4472656 L496.0566406,41.0566406 C495.8847656,41.6035156 495.7011719,42.1425781 495.5058594,42.6738281 L509.0410156,42.6738281 L509.0410156,45.6035156 L494.3339844,45.6035156 C493.6308594,47.1816406 492.8457031,48.6542969 491.9785156,50.0214844 Z M492.6582031,53.9238281 L500.0644531,53.9238281 L500.0644531,52.6816406 C501.4238281,51.8222656 502.5566406,51.0722656 503.4628906,50.4316406 L494.0644531,50.4316406 L494.0644531,47.6425781 L508.0566406,47.6425781 L508.0566406,50.4785156 C506.4941406,51.6035156 504.9394531,52.6738281 503.3925781,53.6894531 L503.3925781,53.9238281 L509.1816406,53.9238281 L509.1816406,56.7597656 L503.3925781,56.7597656 L503.3925781,60.4863281 C503.3925781,61.4394531 503.1328125,62.1464844 502.6132813,62.6074219 C502.09375,63.0683594 501.375,63.3222656 500.4570313,63.3691406 C499.5390625,63.4160156 498.1113281,63.4628906 496.1738281,63.5097656 C495.9707031,62.2285156 495.7597656,61.2050781 495.5410156,60.4394531 C496.3300781,60.5097656 497.1425781,60.5449219 497.9785156,60.5449219 C498.7988281,60.5449219 499.3496094,60.4648438 499.6308594,60.3046875 C499.9121094,60.1445313 500.0566406,59.8457031 500.0644531,59.4082031 L500.0644531,56.7597656 L492.6582031,56.7597656 Z M529.6894531,64.5996094 C526.8378906,61.4199219 525.4121094,57.7089844 525.4121094,53.4667969 C525.4121094,49.1308594 526.8457031,45.4355469 529.7128906,42.3808594 L532.8300781,42.3808594 C530.0488281,45.7167969 528.6582031,49.4042969 528.6582031,53.4433594 C528.6582031,57.4980469 530.0410156,61.2167969 532.8066406,64.5996094 Z M535.8300781,61.1425781 L535.2207031,57.8378906 L537.9628906,57.1933594 L537.9628906,48.3691406 L535.4550781,48.3691406 L535.4550781,45.3691406 L537.9628906,45.3691406 L537.9628906,40.5410156 L541.0800781,40.5410156 L541.0800781,45.3691406 L543.3535156,45.3691406 L543.3535156,47.4550781 C544.6503906,45.3535156 545.7207031,43.0488281 546.5644531,40.5410156 L549.5644531,41.3378906 C549.0800781,42.5332031 548.5527344,43.6972656 547.9824219,44.8300781 L552.0605469,44.8300781 C551.5214844,43.7910156 550.9316406,42.7441406 550.2910156,41.6894531 L552.7285156,40.4003906 C553.5878906,41.6816406 554.2910156,42.8144531 554.8378906,43.7988281 L552.8105469,44.8300781 L558.2128906,44.8300781 L558.2128906,47.5019531 L554.0410156,47.5019531 L554.0410156,49.7988281 L557.8847656,49.7988281 L557.8847656,52.3300781 L554.0410156,52.3300781 L554.0410156,54.6269531 L557.8847656,54.6269531 L557.8847656,57.1582031 L554.0410156,57.1582031 L554.0410156,59.5019531 L558.3535156,59.5019531 L558.3535156,62.1738281 L547.5253906,62.1738281 L547.5253906,63.6035156 L544.4785156,63.6035156 L544.4785156,50.7949219 C543.9550781,51.5449219 543.4160156,52.2832031 542.8613281,53.0097656 C542.5019531,51.8847656 542.0957031,50.8613281 541.6425781,49.9394531 C542.0332031,49.4316406 542.4042969,48.9082031 542.7558594,48.3691406 L541.0800781,48.3691406 L541.0800781,56.4316406 L543.7050781,55.7753906 C543.6894531,56.4003906 543.6894531,57.4941406 543.7050781,59.0566406 C540.4394531,59.8847656 537.8144531,60.5800781 535.8300781,61.1425781 Z M547.5253906,49.7988281 L550.9472656,49.7988281 L550.9472656,47.5019531 L547.5253906,47.5019531 Z M547.5253906,54.6269531 L550.9472656,54.6269531 L550.9472656,52.3300781 L547.5253906,52.3300781 Z M547.5253906,59.5019531 L550.9472656,59.5019531 L550.9472656,57.1582031 L547.5253906,57.1582031 Z M564.0957031,64.5996094 L560.9785156,64.5996094 C563.7597656,61.2871094 565.1503906,57.5996094 565.1503906,53.5371094 C565.1503906,49.4980469 563.7675781,45.7792969 561.0019531,42.3808594 L564.1191406,42.3808594 C566.9707031,45.5449219 568.3964844,49.2636719 568.3964844,53.5371094 C568.3964844,57.8808594 566.9628906,61.5683594 564.0957031,64.5996094 Z" style="fill:rgb(55,96,146);stroke:none" clip-path="url(#clip7)" />
<clipPath id="clip8"><path d="M14,121 L587,121 L587,215 L14,215 Z M204,122 L204,163 L396,163 L396,122 Z" /></clipPath>
<path d="M300,176 L124.5650024,176 L124.5650024,186" style="fill:none;stroke:rgb(85,142,213)" clip-path="url(#clip8)" />
<clipPath id="clip9"><path d="M14,121 L587,121 L587,215 L14,215 Z M204,122 L204,163 L396,163 L396,122 Z" /></clipPath>
<path d="M300,176 L328.5650024,176 L328.5650024,186" style="fill:none;stroke:rgb(85,142,213)" clip-path="url(#clip9)" />
<clipPath id="clip10"><path d="M14,121 L587,121 L587,215 L14,215 Z M204,122 L204,163 L396,163 L396,122 Z" /></clipPath>
<path d="M300,176 L504,176 L504,186" style="fill:none;stroke:rgb(85,142,213)" clip-path="url(#clip10)" />
<clipPath id="clip11"><path d="M13,120 L588,120 L588,216 L13,216 L13,120 Z" /></clipPath>
<path d="M300,163 L300,176" style="fill:none;stroke:rgb(85,142,213)" clip-path="url(#clip11)" />
<clipPath id="clip12"><path d="M202,120 L399,120 L399,166 L202,166 L202,120 Z" /></clipPath>
<path d="M204,122 L204,163 L396,163 L396,122 Z" style="fill:rgb(220,230,242);stroke:none" clip-path="url(#clip12)" />
<clipPath id="clip13"><path d="M202,120 L399,120 L399,166 L202,166 L202,120 Z" /></clipPath>
<path d="M204,122 L204,163 L396,163 L396,122 Z" style="fill:none;stroke:rgb(85,142,213);stroke-width:2" clip-path="url(#clip13)" />
<clipPath id="clip14"><path d="M216,129 L385,129 L385,157 L216,157 L216,129 Z" /></clipPath>
<path d="M231.1989899,135.923584 C233.4900055,135.9014435 235.6039276,135.6745605 237.5407867,135.2429199 L237.9724274,136.5212402 C235.7810211,136.8089905 233.9161072,136.9971466 232.3777008,137.0856934 L232.3777008,140.9538574 L238.4372711,140.9538574 L238.4372711,142.0827637 L236.0632477,142.0827637 L236.0632477,150.7819824 L234.8347321,150.7819824 L234.8347321,142.0827637 L232.3777008,142.0827637 L232.3777008,142.8962402 C232.3777008,146.2940216 231.5642242,148.939209 229.9372711,150.8317871 C229.6716461,150.488678 229.3783417,150.1345215 229.0573883,149.7692871 C230.4851227,148.2087402 231.1989899,145.901123 231.1989899,142.8464355 Z M222.3503571,143.3776855 L225.7370758,143.3776855 L225.7370758,141.8005371 L226.9323883,141.8005371 L226.9323883,143.3776855 L230.1862946,143.3776855 L230.1862946,144.4401855 L226.9323883,144.4401855 L226.9323883,148.7731934 C226.9323883,149.9463654 226.3679352,150.532959 225.2390289,150.532959 C224.7631073,150.532959 224.2263336,150.52742 223.6286774,150.5163574 C223.5843964,150.151123 223.5235291,149.730545 223.4460602,149.2546387 C224.0879822,149.3210449 224.591568,149.354248 224.9568024,149.354248 C225.4769745,149.354248 225.7370605,149.0720215 225.7370758,148.5075684 L225.7370758,144.4401855 L222.3503571,144.4401855 Z M221.8855133,140.2731934 L224.5583649,140.2731934 C224.0879822,139.526123 223.6452789,138.8841858 223.2302399,138.3474121 L224.1267242,137.7165527 C224.4919586,138.159256 224.962326,138.7845764 225.5378571,139.5925293 L224.5998688,140.2731934 L226.791275,140.2731934 C227.394455,139.4043732 227.9506073,138.5466309 228.4597321,137.6999512 L229.638443,138.3640137 C229.1016541,139.0557404 228.5897675,139.6921387 228.1027985,140.2731934 L230.6179352,140.2731934 L230.6179352,141.3356934 L221.8855133,141.3356934 Z M222.4167633,136.4216309 L226.0027008,136.4216309 C225.76474,135.9678497 225.493576,135.4753418 225.1892242,134.9440918 L226.2517242,134.4460449 C226.5948181,135.010498 226.9157867,135.5804749 227.2146149,136.1560059 L226.6584625,136.4216309 L230.1862946,136.4216309 L230.1862946,137.4841309 L222.4167633,137.4841309 Z M223.6286774,145.1872559 L224.7575836,145.7185059 C224.1599274,146.9691467 223.5677948,148.098053 222.9812164,149.1052246 C222.6602478,148.9060059 222.2950134,148.7067871 221.8855133,148.5075684 C222.4278259,147.6664124 223.0088806,146.5596466 223.6286774,145.1872559 Z M228.4099274,145.2702637 C229.0297089,146.1114044 229.5720367,146.8861389 230.0368805,147.5944824 L228.9743805,148.3249512 C228.4873962,147.4727325 227.9727478,146.6703186 227.4304352,145.9177246 Z M239.4914703,148.6237793 L247.1945953,148.6237793 L247.1945953,144.3903809 L241.3176422,144.3903809 L241.3176422,143.1120605 L247.1945953,143.1120605 L247.1945953,139.2770996 L242.8117828,139.2770996 C242.0757751,140.6052246 241.2290955,141.8060608 240.2717438,142.8796387 C240.0393219,142.5144043 239.7404785,142.1270294 239.3752594,141.7175293 C240.9358063,139.9688263 242.1698456,137.8327637 243.0774078,135.3093262 L244.438736,135.6745605 C244.1454315,136.4824982 243.821701,137.2572327 243.4675446,137.9987793 L247.1945953,137.9987793 L247.1945953,134.479248 L248.6223297,134.479248 L248.6223297,137.9987793 L254.9641266,137.9987793 L254.9641266,139.2770996 L248.6223297,139.2770996 L248.6223297,143.1120605 L254.4992828,143.1120605 L254.4992828,144.3903809 L248.6223297,144.3903809 L248.6223297,148.6237793 L255.860611,148.6237793 L255.860611,149.8688965 L239.4914703,149.8688965 Z M261.579834,140.322998 L265.5061035,139.8913574 C265.373291,138.4857483 265.2819824,136.7315216 265.2321777,134.6286621 L266.6765137,134.6286621 C266.6543884,136.2832794 266.7235718,137.9877014 266.8840332,139.7419434 L272.9685059,139.0778809 L273.1179199,140.3063965 L267.0168457,140.9787598 C267.6421814,145.560791 268.8457947,148.3083496 270.6276855,149.2214355 C271.1146851,149.4206543 271.4301147,149.2601624 271.5739746,148.7399902 C271.7842712,147.9541779 271.9613647,147.0632324 272.1052246,146.0671387 C272.5700684,146.2663574 273.0127869,146.4268341 273.4333496,146.548584 C273.267334,147.6221466 273.0681152,148.5739746 272.8356934,149.4040527 C272.5368652,150.3669434 271.9447632,150.8373108 271.0593262,150.8151855 C270.1075134,150.7819824 269.1999512,150.2119904 268.3366699,149.1052246 C267.0528259,147.611084 266.1591187,144.9520569 265.6555176,141.1281738 L261.7790527,141.5515137 Z M256.7653809,142.4978027 C258.4919434,140.173584 259.8588257,137.517334 260.8659668,134.5290527 L262.1940918,134.9938965 C261.7015991,136.2832794 261.1869507,137.4813538 260.6501465,138.5881348 L260.6501465,150.8981934 L259.2888184,150.8981934 L259.2888184,141.1364746 C258.657959,142.1934357 258.0049744,143.1452637 257.329834,143.9919434 C257.1748962,143.5381622 256.9867554,143.0401154 256.7653809,142.4978027 Z M268.2038574,135.9401855 L269.0671387,135.0603027 C270.0411072,135.8018341 271.0372009,136.6263733 272.0554199,137.5339355 L271.0427246,138.5632324 C270.1130371,137.6114044 269.166748,136.7370605 268.2038574,135.9401855 Z M288.217041,151.5871582 C286.2414551,149.4289551 285.2536621,146.8169708 285.2536621,143.7512207 C285.2536621,140.6467285 286.2414551,138.0015411 288.217041,135.8156738 L289.6447754,135.8156738 C287.6802673,138.0568848 286.697998,140.6965332 286.697998,143.7346191 C286.697998,146.7284241 287.6747437,149.3459473 289.6281738,151.5871582 Z M296.4099121,148.6652832 L296.4099121,137.666748 C296.155365,137.9212952 295.7250977,138.2062988 295.1191406,138.5217285 C294.5131836,138.8371582 293.9528809,139.0585022 293.4382324,139.185791 L293.4382324,137.592041 C294.1188965,137.4038849 294.8466187,137.1036682 295.6213379,136.6914063 C296.3960876,136.279129 296.9909668,135.8903809 297.4060059,135.5251465 L298.0202637,135.5251465 L298.0202637,148.6652832 Z M309.3591309,135.807373 L303.1916504,150.798584 L301.6726074,150.798584 L307.8400879,135.807373 Z M310.6125488,146.5153809 C311.4924316,147.1960449 312.4857788,147.536377 313.5925293,147.536377 C314.4779663,147.536377 315.1793823,147.3191681 315.6967773,146.8847656 C316.2142029,146.4503479 316.4729004,145.8679199 316.4729004,145.1374512 C316.4729004,143.510498 315.3080444,142.6970215 312.9782715,142.6970215 L311.9074707,142.6970215 L311.9074707,141.3522949 L312.9284668,141.3522949 C314.9926147,141.3522949 316.0246582,140.588623 316.0246582,139.0612793 C316.0246582,137.6501465 315.236084,136.9445801 313.6589355,136.9445801 C312.7569275,136.9445801 311.9074707,137.2489319 311.1105957,137.857666 L311.1105957,136.3220215 C311.9517517,135.8350372 312.934021,135.5915527 314.057373,135.5915527 C315.1530762,135.5915527 316.032959,135.8779297 316.6970215,136.4506836 C317.361084,137.0234375 317.6931152,137.7663574 317.6931152,138.6794434 C317.6931152,140.3617249 316.8353882,141.4436035 315.119873,141.9250488 L315.119873,141.958252 C316.0495605,142.0578613 316.7841797,142.3857422 317.3237305,142.9418945 C317.8632813,143.4980469 318.1330566,144.1911621 318.1330566,145.0212402 C318.1330566,146.1778107 317.7166443,147.11026 316.8837891,147.8186035 C316.0509644,148.5269318 314.9428101,148.8811035 313.5593262,148.8811035 C312.3418884,148.8811035 311.3596191,148.6542053 310.6125488,148.2004395 Z M324.9064941,141.5183105 C326.2124939,139.7032013 327.3856812,137.4121857 328.4260254,134.6452637 L329.6379395,135.0270996 C329.2561035,135.9899902 328.8632202,136.9085999 328.4592285,137.782959 L336.1789551,137.782959 L336.1789551,138.9118652 L332.6096191,138.9118652 L332.6096191,141.4187012 L335.8635254,141.4187012 L335.8635254,142.4812012 L332.6096191,142.4812012 L332.6096191,144.9880371 L335.8469238,144.9880371 L335.8469238,146.0505371 L332.6096191,146.0505371 L332.6096191,148.5739746 L336.3615723,148.5739746 L336.3615723,149.6364746 L328.326416,149.6364746 L328.326416,150.8649902 L327.0646973,150.8649902 L327.0646973,140.5222168 C326.6607361,141.2416077 326.245697,141.9278107 325.8195801,142.5808105 C325.5982361,142.2598419 325.2938843,141.9056702 324.9064941,141.5183105 Z M319.9094238,147.3952637 C320.6841736,147.2015686 321.5031738,146.9857483 322.3664551,146.7478027 L322.3664551,139.8581543 L320.1418457,139.8581543 L320.1418457,138.6794434 L322.3664551,138.6794434 L322.3664551,134.6950684 L323.5949707,134.6950684 L323.5949707,138.6794434 L325.7365723,138.6794434 L325.7365723,139.8581543 L323.5949707,139.8581543 L323.5949707,146.4074707 C324.3918457,146.1805725 325.227478,145.9343262 326.1018066,145.6687012 C326.1239624,146.1778107 326.1516113,146.6149902 326.1848145,146.9802246 C324.1815796,147.5446777 322.2391968,148.1201935 320.357666,148.7067871 Z M328.326416,148.5739746 L331.3479004,148.5739746 L331.3479004,146.0505371 L328.326416,146.0505371 Z M328.326416,144.9880371 L331.3479004,144.9880371 L331.3479004,142.4812012 L328.326416,142.4812012 Z M328.326416,141.4187012 L331.3479004,141.4187012 L331.3479004,138.9118652 L328.326416,138.9118652 Z M330.7336426,135.126709 L331.7629395,134.5788574 C332.3937988,135.5196075 332.9195251,136.3607483 333.3400879,137.1022949 L332.1945801,137.7331543 C331.7408142,136.8477325 331.2538452,135.9789124 330.7336426,135.126709 Z M338.079834,148.7565918 L344.986084,148.7565918 L344.986084,144.4069824 L339.7897949,144.4069824 L339.7897949,143.1452637 L351.6101074,143.1452637 L351.6101074,144.4069824 L346.3972168,144.4069824 L346.3972168,148.7565918 L353.3200684,148.7565918 L353.3200684,150.0183105 L338.079834,150.0183105 Z M338.1794434,136.6374512 L345.3928223,136.6374512 C345.1382751,136.1560059 344.8200684,135.613678 344.4382324,135.010498 L345.666748,134.4128418 C346.1205444,135.0658264 346.5134277,135.7077637 346.845459,136.338623 L346.239502,136.6374512 L353.2370605,136.6374512 L353.2370605,139.8581543 L351.8757324,139.8581543 L351.8757324,137.8991699 L339.5407715,137.8991699 L339.5407715,139.8581543 L338.1794434,139.8581543 Z M343.5251465,138.729248 L344.5046387,139.6755371 C342.3575134,141.3578186 340.3376465,142.7302246 338.4450684,143.7927246 C338.1019897,143.3389435 337.7699585,142.979248 337.4489746,142.713623 C339.6182556,141.606842 341.6436462,140.278717 343.5251465,138.729248 Z M347.791748,138.7458496 C350.1159668,140.129303 352.1358337,141.4353027 353.8513184,142.6638184 L352.9050293,143.8093262 C351.2338257,142.5033264 349.2637634,141.1364746 346.994873,139.7087402 Z M359.6535645,138.9782715 L366.692627,138.9782715 L366.692627,147.1960449 L360.848877,147.1960449 L360.848877,148.2253418 L359.6535645,148.2253418 Z M361.0480957,136.8366699 L361.0480957,135.5915527 L370.677002,135.5915527 L370.677002,148.7399902 C370.677002,150.1345215 369.8856812,150.8317871 368.3029785,150.8317871 C367.6610718,150.8317871 366.8199158,150.8207092 365.779541,150.798584 C365.7352905,150.4665527 365.6467285,150.0183105 365.513916,149.4538574 C366.4325562,149.5202637 367.3068848,149.5534668 368.1369629,149.5534668 C368.967041,149.5534668 369.3820801,149.1494904 369.3820801,148.3415527 L369.3820801,136.8366699 Z M355.8186035,137.8161621 L357.1135254,137.8161621 L357.1135254,150.8317871 L355.8186035,150.8317871 Z M360.848877,146.017334 L365.4973145,146.017334 L365.4973145,143.6599121 L360.848877,143.6599121 Z M365.4973145,140.1569824 L360.848877,140.1569824 L360.848877,142.4812012 L365.4973145,142.4812012 Z M356.6818848,135.3757324 L357.6281738,134.5290527 C358.4693298,135.3259277 359.2496033,136.1006622 359.9689941,136.8532715 L358.8898926,137.7995605 C358.2147827,137.0026855 357.4787598,136.1947327 356.6818848,135.3757324 Z M375.1677246,151.5871582 L373.7399902,151.5871582 C375.7045288,149.3514709 376.6867676,146.7062988 376.6867676,143.6516113 C376.6867676,140.6522522 375.7100525,138.0402832 373.7565918,135.8156738 L375.1677246,135.8156738 C377.1322632,137.9572754 378.114502,140.5692444 378.114502,143.6516113 C378.114502,146.7671661 377.1322632,149.4123535 375.1677246,151.5871582 Z" style="fill:rgb(23,55,94);stroke:none" clip-path="url(#clip14)" />
<clipPath id="clip15"><path d="M294,164 L307,164 L307,177 L294,177 L294,164 Z" /></clipPath>
<path d="M304.5,170 C304.5,167.5147095 302.4852905,165.5 300,165.5 C297.5147095,165.5 295.5,167.5147095 295.5,170 C295.5,172.4852905 297.5147095,174.5 300,174.5 C302.4852905,174.5 304.5,172.48526 304.5,170 Z" style="fill:rgb(250,250,250);stroke:none" clip-path="url(#clip15)" />
<clipPath id="clip16"><path d="M294,164 L307,164 L307,177 L294,177 L294,164 Z" /></clipPath>
<path d="M304.5,170 C304.5,167.5147095 302.4852905,165.5 300,165.5 C297.5147095,165.5 295.5,167.5147095 295.5,170 C295.5,172.4852905 297.5147095,174.5 300,174.5 C302.4852905,174.5 304.5,172.48526 304.5,170 Z" style="fill:none;stroke:rgb(85,142,213)" clip-path="url(#clip16)" />
<clipPath id="clip17"><path d="M294,164 L307,164 L307,177 L294,177 L294,164 Z" /></clipPath>
<path d="M298,170 L302,170" style="fill:none;stroke:rgb(150,160,200)" clip-path="url(#clip17)" />
<clipPath id="clip18"><path d="M13,183 L237,183 L237,216 L13,216 L13,183 Z" /></clipPath>
<path d="M16,186 L16,212 L233,212 L233,186 Z" style="fill:rgb(240,240,240);stroke:none" clip-path="url(#clip18)" />
<clipPath id="clip19"><path d="M13,183 L237,183 L237,216 L13,216 L13,183 Z" /></clipPath>
<path d="M16,186 L16,212 L233,212 L233,186 Z" style="fill:none;stroke:rgb(85,142,213);stroke-width:3" clip-path="url(#clip19)" />
<clipPath id="clip20"><path d="M25,188 L225,188 L225,211 L25,211 L25,188 Z" /></clipPath>
<path d="M35.4170227,203.8322754 L30.129425,203.8322754 L30.129425,193.9997559 L35.1948547,193.9997559 L35.1948547,195.1296387 L31.3989563,195.1296387 L31.3989563,198.2780762 L34.9155579,198.2780762 L34.9155579,199.4016113 L31.3989563,199.4016113 L31.3989563,202.7087402 L35.4170227,202.7087402 Z M43.4277649,203.8322754 L42.1836243,203.8322754 L42.1836243,202.6643066 L42.1582336,202.6643066 C41.6461792,203.5529633 40.8506165,203.9973145 39.7715149,203.9973145 C38.882843,203.9973145 38.1761169,203.6809845 37.6513977,203.0483398 C37.1266479,202.4156799 36.8642883,201.5619202 36.8642883,200.4870605 C36.8642883,199.3275452 37.1604919,198.3976135 37.7529602,197.6972656 C38.3453979,196.9969025 39.119812,196.6467285 40.0762024,196.6467285 C41.0325623,196.6467285 41.726593,197.0191193 42.1582336,197.763916 L42.1836243,197.763916 L42.1836243,193.4411621 L43.4277649,193.4411621 Z M42.1899719,199.6555176 C42.1899719,199.0926819 42.0048218,198.6219025 41.634552,198.2431641 C41.2642517,197.8644104 40.8082886,197.6750488 40.2666321,197.6750488 C39.6064758,197.6750488 39.085968,197.9215393 38.7051086,198.4145508 C38.3242493,198.907547 38.1338196,199.5793457 38.1338196,200.4299316 C38.1338196,201.2127991 38.3168335,201.8316956 38.6828918,202.2866211 C39.0489197,202.7415314 39.5366516,202.9689941 40.1460266,202.9689941 C40.7469177,202.9689941 41.2378235,202.7457581 41.6186829,202.2993164 C41.9995422,201.8528595 42.1899719,201.2974396 42.1899719,200.6330566 Z M51.6162415,200.6394043 L46.7031555,200.6394043 C46.7243042,201.3884277 46.9295349,201.9671173 47.3188782,202.3754883 C47.7081909,202.783844 48.2519836,202.9880371 48.9502258,202.9880371 C49.7373352,202.9880371 50.4588318,202.7362366 51.1147766,202.232666 L51.1147766,203.3435059 C50.4969177,203.7793732 49.6780701,203.9973145 48.6582336,203.9973145 C47.6426086,203.9973145 46.8501892,203.6756897 46.2810364,203.0324707 C45.711853,202.3892365 45.4272766,201.4963379 45.4272766,200.3537598 C45.4272766,199.2788849 45.7393494,198.392334 46.3635559,197.6940918 C46.9877319,196.9958496 47.7631836,196.6467285 48.6899719,196.6467285 C49.6082458,196.6467285 50.325531,196.9418945 50.8418274,197.5322266 C51.3580933,198.1225586 51.6162415,198.9488068 51.6162415,200.0109863 Z M50.3721008,199.6428223 C50.3678589,199.0080566 50.2176208,198.5171661 49.9214172,198.170166 C49.6251831,197.8231506 49.2083435,197.6496582 48.670929,197.6496582 C48.1758118,197.6496582 47.7473145,197.8337402 47.3855286,198.2019043 C47.0237122,198.5700684 46.7962341,199.0503693 46.7031555,199.6428223 Z M59.4302063,203.8322754 L58.1924133,203.8322754 L58.1924133,199.8395996 C58.1923828,198.3965607 57.6655273,197.6750488 56.6118469,197.6750488 C56.0659485,197.6750488 55.6173706,197.8781738 55.2661438,198.2844238 C54.9148865,198.6906738 54.7392883,199.204834 54.7392883,199.8269043 L54.7392883,203.8322754 L53.4951477,203.8322754 L53.4951477,196.8117676 L54.7392883,196.8117676 L54.7392883,197.9733887 L54.764679,197.9733887 C55.2936401,197.0889435 56.0617065,196.6467285 57.0688782,196.6467285 C57.8390503,196.6467285 58.4251404,196.893219 58.827179,197.3862305 C59.229187,197.8792267 59.4302063,198.5975647 59.4302063,199.5412598 Z M61.855011,193.9362793 L72.7729797,193.9362793 L72.7729797,194.9265137 L62.9341125,194.9265137 L62.9341125,203.7878418 L72.9761047,203.7878418 L72.9761047,204.7526855 L61.855011,204.7526855 Z M63.9116516,196.322998 L64.6225891,195.6501465 C65.6805115,196.5218811 66.7871399,197.4782715 67.9424133,198.5192871 C68.8268433,197.5628967 69.6753235,196.5218811 70.4878235,195.3962402 L71.4145813,196.0183105 C70.5259094,197.169342 69.6245422,198.2357483 68.7104797,199.2175293 C69.7641907,200.1781311 70.8559875,201.2064514 71.9858704,202.3024902 L71.1098938,203.1911621 C70.0857849,202.1205139 69.032074,201.0625763 67.948761,200.017334 C66.725769,201.2572327 65.4816284,202.3490295 64.2163391,203.2927246 C64.0132141,203.0303497 63.7423706,202.7552795 63.4038391,202.4675293 C64.732605,201.5619202 65.9957886,200.5061035 67.1933899,199.3000488 C66.1311951,198.2971191 65.0372925,197.3047638 63.9116516,196.322998 Z M88.7246399,206.0666504 C87.2138977,204.4162598 86.4585266,202.4188538 86.4585266,200.0744629 C86.4585266,197.7004395 87.2138977,195.6776428 88.7246399,194.0061035 L89.8164368,194.0061035 C88.3141479,195.7199707 87.5630188,197.7385254 87.5630188,200.0617676 C87.5630188,202.3511505 88.309906,204.3527832 89.8037415,206.0666504 Z M97.0464172,198.7224121 L97.0464172,198.392334 L95.3960266,198.392334 L95.3960266,199.4841309 L97.8716125,199.4841309 L97.8716125,200.182373 L95.3960266,200.182373 L95.3960266,201.2487793 C96.2931519,201.197998 97.194519,201.1387482 98.1001282,201.0710449 C98.0916443,201.3080139 98.0958862,201.5619202 98.1128235,201.8327637 C96.0223083,201.9851074 93.9529724,202.1416779 91.9048157,202.3024902 L91.7651672,201.439209 C92.7088318,201.3968811 93.6567688,201.3503418 94.6089172,201.2995605 L94.6089172,200.182373 L92.08255,200.182373 L92.08255,199.4841309 L94.6089172,199.4841309 L94.6089172,198.392334 L92.9712219,198.392334 L92.9712219,198.7224121 L92.1841125,198.7224121 L92.1841125,193.6696777 L97.8335266,193.6696777 L97.8335266,198.7224121 Z M98.1763,196.5895996 L100.1440735,196.5895996 C100.1694641,195.7263184 100.1821594,194.549881 100.1821594,193.0603027 L101.1216125,193.0603027 C101.1216125,194.4990997 101.1089172,195.6755371 101.0835266,196.5895996 L103.9145813,196.5895996 L103.9145813,197.4401855 L101.0644836,197.4401855 C101.5003357,200.588623 102.5519409,202.9245605 104.2192688,204.447998 C103.9060974,204.7526855 103.6352539,205.0658264 103.4067688,205.3874512 C102.0991211,203.9655762 101.2083435,202.1226349 100.7344055,199.8586426 C100.3662415,202.0422363 99.433136,203.9444122 97.9350891,205.5651855 C97.6980896,205.2604828 97.4611206,204.9896545 97.2241516,204.7526855 C99.0310974,203.0091858 99.9980774,200.5716858 100.1250305,197.4401855 L98.1763,197.4401855 Z M97.0464172,194.3679199 L95.3960266,194.3679199 L95.3960266,197.6940918 L97.0464172,197.6940918 Z M92.9712219,197.6940918 L94.6089172,197.6940918 L94.6089172,194.3679199 L92.9712219,194.3679199 Z M93.2251282,203.0515137 C92.9966125,203.8216858 92.7088318,204.5749512 92.3618469,205.3112793 L91.5493469,204.9938965 C91.913269,204.3083496 92.2179565,203.5762482 92.4634094,202.7976074 Z M101.4136047,194.4060059 L101.9848938,193.7966309 C102.678894,194.3382874 103.2247925,194.8037872 103.6225891,195.1931152 L102.9370422,195.916748 C102.5307922,195.4681702 102.0229797,194.9645996 101.4136047,194.4060059 Z M94.2534485,202.7849121 C94.4988708,203.487381 94.7019958,204.1390686 94.8628235,204.7399902 L94.0630188,205.0065918 C93.910675,204.3125763 93.741394,203.6439514 93.5552063,203.0007324 Z M95.7261047,202.4802246 C95.9461365,202.8441467 96.21698,203.4239044 96.5386047,204.2194824 L95.7514954,204.5368652 C95.5652771,203.9444122 95.3283081,203.3435059 95.0405579,202.7341309 Z M96.8305969,195.3581543 C96.6359253,196.0690918 96.4412537,196.6657715 96.2466125,197.1481934 L95.6118469,196.9450684 C95.7641907,196.5557404 95.941925,195.9632874 96.14505,195.1677246 Z M93.1489563,195.345459 L93.7964172,195.142334 C94.0249329,195.8363342 94.1941833,196.4245605 94.3042297,196.9069824 L93.6186829,197.1101074 C93.5086365,196.5684357 93.3520813,195.9802246 93.1489563,195.345459 Z M97.1479797,202.0231934 C97.4441833,202.4040527 97.7361755,202.83992 98.0239563,203.3308105 L97.3384094,203.7751465 C97.160675,203.4027405 96.8898315,202.9372559 96.5259094,202.3786621 Z M112.452179,193.1618652 L113.4804993,193.1618652 C113.4720154,194.2748108 113.4572144,195.364502 113.4360657,196.4309082 C113.9015503,200.2945099 115.291687,202.9118652 117.6064758,204.282959 C117.3017883,204.6214905 117.0267029,204.9473419 116.7812805,205.260498 C114.9743042,203.9909668 113.7449646,201.9597168 113.0932922,199.166748 C112.6277771,201.7227325 111.3265076,203.8301544 109.1894836,205.4890137 C108.994812,205.2520294 108.7493591,204.9812012 108.4531555,204.6765137 C111.0768433,202.7891388 112.3971558,200.017334 112.414093,196.361084 C112.4394836,195.4131622 112.452179,194.346756 112.452179,193.1618652 Z M109.8877258,200.5124512 C109.9385071,200.8848419 110.0061951,201.2276154 110.0908508,201.5407715 C109.2106323,202.2178497 108.3684998,202.9160919 107.5644836,203.635498 C107.335968,203.8470764 107.1412964,204.0671387 106.9804993,204.2956543 L106.2314758,203.5085449 C106.5022888,203.229248 106.6377258,202.856842 106.6377258,202.3913574 L106.6377258,198.1130371 L104.936554,198.1130371 L104.936554,197.1989746 L107.6279602,197.1989746 L107.6279602,202.3786621 C108.2542419,201.879303 109.0075073,201.2572327 109.8877258,200.5124512 Z M106.8408508,193.2634277 C107.6533508,194.0843811 108.3684998,194.8334045 108.9863586,195.510498 L108.1103821,196.2341309 C107.5179138,195.4893341 106.8450623,194.7106934 106.0918274,193.8981934 Z M118.7680969,201.0900879 C118.7680969,200.5230255 118.9373474,200.0003967 119.2759094,199.5222168 C119.6144409,199.0440216 120.0503235,198.7033691 120.5835266,198.5002441 C120.1560974,198.2590332 119.8175659,197.9501038 119.5679016,197.5734863 C119.3182068,197.1968536 119.1933899,196.7884827 119.1933899,196.3483887 C119.1933899,195.8828888 119.3129272,195.4575958 119.5520325,195.0725098 C119.7911072,194.6874084 120.1233215,194.3848419 120.5486145,194.1647949 C120.9739075,193.9447327 121.4425659,193.8347168 121.9546204,193.8347168 C122.4708862,193.8347168 122.9427185,193.9436798 123.3701477,194.1616211 C123.7975464,194.3795471 124.1297302,194.6810608 124.3667297,195.0661621 C124.6036987,195.4512482 124.7221985,195.8786621 124.7221985,196.3483887 C124.7221985,196.7800293 124.6005249,197.1852112 124.3572083,197.5639648 C124.1138611,197.9427032 123.7763672,198.2547913 123.3447571,198.5002441 C123.8779297,198.7075958 124.3117065,199.0503693 124.6460266,199.5285645 C124.9803162,200.0067444 125.1474915,200.5272522 125.1474915,201.0900879 C125.1474915,201.6486816 125.0141907,202.1490784 124.7475891,202.5913086 C124.4809875,203.0335236 124.1022339,203.3773499 123.6113586,203.6228027 C123.1204529,203.8682404 122.5682068,203.9909668 121.9546204,203.9909668 C121.3452148,203.9909668 120.7972107,203.8682404 120.3105774,203.6228027 C119.8239136,203.3773499 119.4451599,203.0324707 119.1743469,202.5881348 C118.9035034,202.1437988 118.7680969,201.6444397 118.7680969,201.0900879 Z M119.9868469,201.032959 C119.9868469,201.6169434 120.166687,202.084549 120.5263977,202.435791 C120.8860779,202.7870178 121.3642883,202.9626465 121.960968,202.9626465 C122.5449524,202.9626465 123.0220642,202.783844 123.3923645,202.4262695 C123.7626343,202.0686798 123.9477844,201.604248 123.9477844,201.032959 C123.9477844,200.4912872 123.7605286,200.0353088 123.3860168,199.6650391 C123.0115051,199.294754 122.5364685,199.1096191 121.960968,199.1096191 C121.389679,199.1096191 120.9178162,199.2905273 120.5454407,199.6523438 C120.1730347,200.0141602 119.9868469,200.4743652 119.9868469,201.032959 Z M120.3423157,196.4499512 C120.3423157,196.8900452 120.4988708,197.2677307 120.8120422,197.5830078 C121.1251831,197.8982697 121.5081482,198.0559082 121.960968,198.0559082 C122.405304,198.0559082 122.7893372,197.8972168 123.1130676,197.579834 C123.4367981,197.2624512 123.5986633,196.8858185 123.5986633,196.4499512 C123.5986633,196.0056152 123.4431458,195.6289825 123.1321106,195.3200684 C122.8210754,195.0111389 122.4306946,194.8566895 121.960968,194.8566895 C121.4954529,194.8566895 121.109314,195.0079651 120.8025208,195.3105469 C120.495697,195.6131134 120.3423157,195.9929199 120.3423157,196.4499512 Z M131.6665344,193.9997559 L126.9502258,205.463623 L125.7886047,205.463623 L130.5049133,193.9997559 Z M135.3354797,203.8322754 L135.3354797,195.4216309 C135.1408081,195.6162872 134.8117981,195.8342285 134.3484192,196.0754395 C133.8850403,196.3166504 133.4565735,196.4859161 133.0630188,196.583252 L133.0630188,195.364502 C133.5835266,195.2206116 134.1399841,194.9910431 134.7324524,194.6757813 C135.3248901,194.3605042 135.7798157,194.0632324 136.0971985,193.7839355 L136.566925,193.7839355 L136.566925,203.8322754 Z M140.1470032,199.1096191 C140.1470032,197.374588 140.4347534,196.061676 141.0102844,195.1708984 C141.5857849,194.2801056 142.4194641,193.8347168 143.511261,193.8347168 C145.5932617,193.8347168 146.6343079,195.5147247 146.6343079,198.8747559 C146.6343079,200.5335999 146.3412476,201.8020782 145.7551575,202.6801758 C145.1690369,203.5582581 144.3470154,203.9973145 143.289093,203.9973145 C142.2903748,203.9973145 141.5170288,203.5804749 140.9690247,202.7468262 C140.42099,201.9131622 140.1470032,200.7007599 140.1470032,199.1096191 Z M141.4165344,199.0524902 C141.4165344,201.6634827 142.0787964,202.9689941 143.4033508,202.9689941 C144.7067261,202.9689941 145.3583984,201.642334 145.358429,198.9890137 C145.3583984,196.2425842 144.7194214,194.8693848 143.4414368,194.8693848 C142.0914917,194.8693848 141.4165344,196.2637482 141.4165344,199.0524902 Z M154.7212219,194.088623 C156.473175,194.0716858 158.0896912,193.8981934 159.5708313,193.5681152 L159.9009094,194.5456543 C158.2251282,194.7657013 156.7990112,194.9095764 155.6225891,194.9772949 L155.6225891,197.9353027 L160.2563782,197.9353027 L160.2563782,198.798584 L158.4409485,198.798584 L158.4409485,205.4509277 L157.5014954,205.4509277 L157.5014954,198.798584 L155.6225891,198.798584 L155.6225891,199.4206543 C155.6225891,202.0189514 155.0005188,204.041748 153.7563782,205.4890137 C153.5532532,205.2266388 153.328949,204.9558105 153.0835266,204.6765137 C154.1753235,203.4831543 154.7212219,201.7185059 154.7212219,199.3825684 Z M147.9546204,199.7888184 L150.5444641,199.7888184 L150.5444641,198.5827637 L151.4585266,198.5827637 L151.4585266,199.7888184 L153.9468079,199.7888184 L153.9468079,200.6013184 L151.4585266,200.6013184 L151.4585266,203.9147949 C151.4585266,204.8119202 151.026886,205.2604828 150.1636047,205.260498 C149.7996521,205.2604828 149.3891907,205.2562561 148.9321594,205.2478027 C148.8982849,204.9685059 148.8517456,204.6468811 148.792511,204.282959 C149.2833862,204.3337402 149.6684875,204.3591309 149.9477844,204.3591309 C150.3455505,204.3591309 150.5444336,204.1432953 150.5444641,203.7116699 L150.5444641,200.6013184 L147.9546204,200.6013184 Z M147.5991516,197.4147949 L149.6430969,197.4147949 C149.2833862,196.8435059 148.9448547,196.3526154 148.6274719,195.9421387 L149.3130188,195.4597168 C149.5923157,195.7982483 149.9519958,196.2764435 150.3921204,196.8942871 L149.6748352,197.4147949 L151.3506165,197.4147949 C151.8118591,196.7503967 152.2371521,196.0944824 152.6264954,195.4470215 L153.5278625,195.954834 C153.1173706,196.4837952 152.7259216,196.970459 152.3535461,197.4147949 L154.276886,197.4147949 L154.276886,198.2272949 L147.5991516,198.2272949 Z M148.0054016,194.4694824 L150.7475891,194.4694824 C150.5656128,194.122467 150.3582458,193.7458496 150.1255188,193.3395996 L150.9380188,192.9587402 C151.2003784,193.3903809 151.4458313,193.8262482 151.6743469,194.2663574 L151.249054,194.4694824 L153.9468079,194.4694824 L153.9468079,195.2819824 L148.0054016,195.2819824 Z M148.9321594,201.1726074 L149.7954407,201.5788574 C149.3384094,202.5352325 148.8855896,203.3985138 148.4370422,204.1687012 C148.1915894,204.0163574 147.9122925,203.8639984 147.5991516,203.7116699 C148.013855,203.0684357 148.4581909,202.2220764 148.9321594,201.1726074 Z M152.5884094,201.236084 C153.0623474,201.879303 153.4770813,202.471756 153.83255,203.0134277 L153.02005,203.5720215 C152.647644,202.9203186 152.2540894,202.3067169 151.839386,201.7312012 Z M161.0625305,203.8005371 L166.9531555,203.8005371 L166.9531555,200.5632324 L162.4590149,200.5632324 L162.4590149,199.5856934 L166.9531555,199.5856934 L166.9531555,196.6530762 L163.601593,196.6530762 C163.0387573,197.6687012 162.3912964,198.5869904 161.6592102,199.407959 C161.4814758,199.1286621 161.2529297,198.832428 160.9736633,198.5192871 C162.1670227,197.1820374 163.1106873,195.548584 163.804718,193.6188965 L164.8457336,193.8981934 C164.6214294,194.5160217 164.3738708,195.1084747 164.1030579,195.6755371 L166.9531555,195.6755371 L166.9531555,192.9841309 L168.0449524,192.9841309 L168.0449524,195.6755371 L172.8945618,195.6755371 L172.8945618,196.6530762 L168.0449524,196.6530762 L168.0449524,199.5856934 L172.539093,199.5856934 L172.539093,200.5632324 L168.0449524,200.5632324 L168.0449524,203.8005371 L173.5801086,203.8005371 L173.5801086,204.7526855 L161.0625305,204.7526855 Z M177.9536438,197.4528809 L180.9560852,197.1228027 C180.8545227,196.0479279 180.7846985,194.7064514 180.7466125,193.0983887 L181.8511047,193.0983887 C181.8341675,194.363678 181.8870544,195.6670685 182.0097961,197.0085449 L186.6626282,196.5007324 L186.776886,197.4401855 L182.1113586,197.9543457 C182.5895386,201.458252 183.5099487,203.5593262 184.8725891,204.2575684 C185.2449646,204.4099121 185.4861755,204.2871857 185.5962219,203.8894043 C185.757019,203.2884827 185.8924255,202.6071777 186.0024719,201.845459 C186.3579102,201.9978027 186.6964722,202.1205139 187.0180969,202.213623 C186.8911438,203.0345764 186.7388,203.7624512 186.5610657,204.3972168 C186.33255,205.1335449 185.8797302,205.4932404 185.2026672,205.4763184 C184.4747925,205.4509277 183.7807922,205.0150452 183.120636,204.1687012 C182.138855,203.026123 181.4554138,200.9927521 181.070343,198.0686035 L178.1059875,198.392334 Z M174.2720032,199.1159668 C175.5922852,197.338623 176.6375427,195.307373 177.4077454,193.0222168 L178.4233704,193.3776855 C178.0467224,194.363678 177.6531677,195.2798615 177.2427063,196.1262207 L177.2427063,205.5397949 L176.2016907,205.5397949 L176.2016907,198.0749512 C175.7192688,198.8832092 175.2199097,199.611084 174.7036438,200.2585449 C174.585144,199.9115295 174.4412537,199.5306702 174.2720032,199.1159668 Z M183.0190735,194.1013184 L183.6792297,193.4284668 C184.4240112,193.9955139 185.18573,194.6260529 185.964386,195.3200684 L185.1899719,196.1071777 C184.4790344,195.379303 183.7554016,194.7106934 183.0190735,194.1013184 Z M188.2558899,203.9020996 L193.5371399,203.9020996 L193.5371399,200.5759277 L189.5635071,200.5759277 L189.5635071,199.611084 L198.6025696,199.611084 L198.6025696,200.5759277 L194.6162415,200.5759277 L194.6162415,203.9020996 L199.9101868,203.9020996 L199.9101868,204.8669434 L188.2558899,204.8669434 Z M188.3320618,194.6345215 L193.848175,194.6345215 C193.6535034,194.2663574 193.4101868,193.8516388 193.1181946,193.3903809 L194.0576477,192.9333496 C194.4046478,193.4326935 194.7051086,193.923584 194.9590149,194.4060059 L194.495636,194.6345215 L199.8467102,194.6345215 L199.8467102,197.0974121 L198.8056946,197.0974121 L198.8056946,195.5993652 L189.3730774,195.5993652 L189.3730774,197.0974121 L188.3320618,197.0974121 Z M192.4199524,196.2341309 L193.1689758,196.9577637 C191.5270386,198.2442169 189.9824219,199.2937012 188.5351868,200.1062012 C188.2727966,199.7591858 188.0188904,199.4841309 187.773468,199.2810059 C189.432312,198.4346466 190.9811401,197.4190216 192.4199524,196.2341309 Z M195.6826477,196.2468262 C197.4599915,197.3047638 199.0045776,198.3034668 200.3164368,199.2429199 L199.592804,200.1188965 C198.3148041,199.1201935 196.8082886,198.0749512 195.0732727,196.9831543 Z M204.7534485,196.4245605 L210.136261,196.4245605 L210.136261,202.7087402 L205.667511,202.7087402 L205.667511,203.4958496 L204.7534485,203.4958496 Z M205.8198547,194.7868652 L205.8198547,193.8347168 L213.183136,193.8347168 L213.183136,203.8894043 C213.183136,204.9557953 212.5779877,205.4890137 211.3677063,205.4890137 C210.8768158,205.4890137 210.2335815,205.480545 209.4380188,205.463623 C209.4041595,205.2097168 209.3364563,204.8669434 209.2348938,204.4353027 C209.9373627,204.486084 210.6059875,204.5114746 211.2407532,204.5114746 C211.8755188,204.5114746 212.1929016,204.2025452 212.1929016,203.5847168 L212.1929016,194.7868652 Z M201.8208313,195.5358887 L202.8110657,195.5358887 L202.8110657,205.4890137 L201.8208313,205.4890137 Z M205.667511,201.807373 L209.2221985,201.807373 L209.2221985,200.0046387 L205.667511,200.0046387 Z M209.2221985,197.3259277 L205.667511,197.3259277 L205.667511,199.1032715 L209.2221985,199.1032715 Z M202.4809875,193.6696777 L203.2046204,193.0222168 C203.8478394,193.6315918 204.444519,194.2240295 204.9946594,194.7995605 L204.1694641,195.5231934 C203.653183,194.9138184 203.0903625,194.2959747 202.4809875,193.6696777 Z M216.617218,206.0666504 L215.5254211,206.0666504 C217.0276947,204.3570099 217.7788391,202.3342285 217.7788391,199.998291 C217.7788391,197.7046661 217.0319214,195.7072754 215.5381165,194.0061035 L216.617218,194.0061035 C218.1194916,195.6437988 218.870636,197.6411896 218.870636,199.998291 C218.870636,202.3807678 218.1194916,204.4035645 216.617218,206.0666504 Z" style="fill:rgb(0,0,0);stroke:none" clip-path="url(#clip20)" />
<clipPath id="clip21"><path d="M236,183 L422,183 L422,216 L236,216 L236,183 Z" /></clipPath>
<path d="M239,186 L239,212 L418,212 L418,186 Z" style="fill:rgb(240,240,240);stroke:none" clip-path="url(#clip21)" />
<clipPath id="clip22"><path d="M236,183 L422,183 L422,216 L236,216 L236,183 Z" /></clipPath>
<path d="M239,186 L239,212 L418,212 L418,186 Z" style="fill:none;stroke:rgb(85,142,213);stroke-width:3" clip-path="url(#clip22)" />
<clipPath id="clip23"><path d="M248,188 L410,188 L410,211 L248,211 L248,188 Z" /></clipPath>
<path d="M253.8388824,201.6740723 C254.139328,201.9364319 254.5413513,202.1522522 255.0449371,202.3215332 C255.5485077,202.490799 256.0267029,202.5754395 256.4794922,202.5754395 C257.8590698,202.5754395 258.5488281,202.084549 258.5488281,201.1027832 C258.5488281,200.827713 258.4747925,200.5801544 258.3266602,200.3601074 C258.1785583,200.1400452 257.9754333,199.9453888 257.7172852,199.776123 C257.4591675,199.606842 256.9746094,199.3465881 256.2636719,198.9953613 C255.2776794,198.5044708 254.6280975,198.0484924 254.3149567,197.6274414 C254.0018005,197.2063751 253.8452301,196.7250061 253.8452301,196.1833496 C253.8452301,195.3666077 254.1731873,194.7191467 254.8291168,194.2409668 C255.4850311,193.7627716 256.3123474,193.5236816 257.3110352,193.5236816 C258.2885742,193.5236816 259.0058594,193.6421661 259.4628906,193.8791504 L259.4628906,195.2629395 C258.8704529,194.8524475 258.1214294,194.6472168 257.2158203,194.6472168 C256.6149292,194.6472168 256.1250916,194.7731018 255.7463531,195.0249023 C255.3675995,195.2766876 255.1782379,195.6268616 255.1782379,196.0754395 C255.1782379,196.4732208 255.3094177,196.7969513 255.5717926,197.0466309 C255.8341522,197.2962952 256.4033203,197.6369629 257.2792969,198.0686035 C258.2441406,198.5298615 258.9191284,198.9911194 259.3041992,199.4523926 C259.6893005,199.9136505 259.8818359,200.4320374 259.8818359,201.0075684 C259.8818359,201.8708496 259.5686951,202.5331116 258.9423828,202.9943848 C258.3161011,203.4556427 257.4464722,203.6862793 256.3334961,203.6862793 C255.9441833,203.6862793 255.4903259,203.632309 254.9719391,203.5244141 C254.453537,203.4165039 254.0758514,203.282135 253.8388824,203.1213379 Z M267.6577148,203.5212402 L266.4072266,203.5212402 L266.4072266,202.416748 L266.3818359,202.416748 C265.9121094,203.263092 265.1906128,203.6862793 264.2172852,203.6862793 C262.5541992,203.6862793 261.7226563,202.691803 261.7226563,200.7028809 L261.7226563,196.5007324 L262.9541016,196.5007324 L262.9541016,200.5187988 C262.9541016,201.9449005 263.5,202.657959 264.5917969,202.657959 C265.1334839,202.657959 265.5714722,202.4580078 265.9057617,202.0581055 C266.2400818,201.6582031 266.4072266,201.1535645 266.4072266,200.5441895 L266.4072266,196.5007324 L267.6577148,196.5007324 Z M273.878418,197.7321777 C273.6710815,197.5840607 273.385437,197.5100098 273.0214844,197.5100098 C272.5390625,197.5100098 272.1412964,197.7353516 271.828125,198.1860352 C271.5149841,198.6367188 271.3583984,199.2302246 271.3583984,199.9665527 L271.3583984,203.5212402 L270.1142578,203.5212402 L270.1142578,196.5007324 L271.3583984,196.5007324 L271.3583984,197.9289551 L271.3837891,197.9289551 C271.7392578,196.8963928 272.3528748,196.380127 273.2246094,196.380127 C273.5081482,196.380127 273.7260742,196.4118652 273.878418,196.4753418 Z M280.8798828,196.5007324 L278.0996094,203.5212402 L276.8427734,203.5212402 L274.2021484,196.5007324 L275.5605469,196.5007324 L277.2744141,201.5153809 C277.4140625,201.9173889 277.496582,202.2538147 277.5219727,202.5246582 L277.5537109,202.5246582 C277.5960388,202.1691895 277.670105,201.841217 277.7758789,201.5407715 L279.5722656,196.5007324 Z M282.0986328,194.0251465 C282.0986328,193.8050842 282.1737671,193.6199493 282.3239746,193.4697266 C282.4742126,193.3194885 282.6593628,193.2443848 282.8793945,193.2443848 C283.1036987,193.2443848 283.2930603,193.3184357 283.4475098,193.4665527 C283.6019897,193.6146545 283.6791992,193.8008575 283.6791992,194.0251465 C283.6791992,194.2451935 283.6019897,194.4282227 283.4475098,194.5742188 C283.2930603,194.7202148 283.1036987,194.7932129 282.8793945,194.7932129 C282.6551208,194.7932129 282.4689331,194.7202148 282.3208008,194.5742188 C282.172699,194.4282227 282.0986328,194.2451935 282.0986328,194.0251465 Z M282.2446289,203.5212402 L282.2446289,196.5007324 L283.4887695,196.5007324 L283.4887695,203.5212402 Z M291.4677734,196.5007324 L288.6875,203.5212402 L287.4306641,203.5212402 L284.7900391,196.5007324 L286.1484375,196.5007324 L287.8623047,201.5153809 C288.0019531,201.9173889 288.0844727,202.2538147 288.1098633,202.5246582 L288.1416016,202.5246582 C288.1839294,202.1691895 288.2579956,201.841217 288.3637695,201.5407715 L290.1601563,196.5007324 Z M292.3691406,200.0871582 C292.3691406,198.9276428 292.6928711,198.0125275 293.340332,197.3417969 C293.987793,196.671051 294.8659058,196.3356934 295.9746094,196.3356934 C297.0283203,196.3356934 297.8545837,196.6583557 298.4533691,197.3037109 C299.0521851,197.9490509 299.3515625,198.8408966 299.3515625,199.979248 C299.3515625,201.0879669 299.032074,201.9829865 298.3930664,202.6643066 C297.7540894,203.3456116 296.8971558,203.6862793 295.8222656,203.6862793 C294.7727966,203.6862793 293.934906,203.3561859 293.3085938,202.6960449 C292.682312,202.0358887 292.3691406,201.1662598 292.3691406,200.0871582 Z M293.6386719,200.0490723 C293.6386719,200.8573303 293.842865,201.4942169 294.2512207,201.9597168 C294.6596069,202.4252014 295.2086792,202.657959 295.8984375,202.657959 C296.609375,202.657959 297.151062,202.4304962 297.5234375,201.9755859 C297.8958435,201.5206604 298.0820313,200.8679199 298.0820313,200.017334 C298.0820313,199.1625061 297.8958435,198.5065918 297.5234375,198.0495605 C297.151062,197.5925293 296.609375,197.3640137 295.8984375,197.3640137 C295.2001953,197.3640137 294.6490173,197.6031036 294.244873,198.0812988 C293.8407593,198.5594788 293.6386719,199.2154083 293.6386719,200.0490723 Z M305.1152344,197.7321777 C304.9078979,197.5840607 304.6222534,197.5100098 304.2583008,197.5100098 C303.7758789,197.5100098 303.3781128,197.7353516 303.0649414,198.1860352 C302.7518005,198.6367188 302.5952148,199.2302246 302.5952148,199.9665527 L302.5952148,203.5212402 L301.3510742,203.5212402 L301.3510742,196.5007324 L302.5952148,196.5007324 L302.5952148,197.9289551 L302.6206055,197.9289551 C302.9760742,196.8963928 303.5896912,196.380127 304.4614258,196.380127 C304.7449646,196.380127 304.9628906,196.4118652 305.1152344,196.4753418 Z M315.6459961,194.8186035 L311.8500977,194.8186035 L311.8500977,198.1066895 L315.3666992,198.1066895 L315.3666992,199.223877 L311.8500977,199.223877 L311.8500977,203.5212402 L310.5805664,203.5212402 L310.5805664,193.6887207 L315.6459961,193.6887207 Z M321.3017578,197.7321777 C321.0944214,197.5840607 320.8087769,197.5100098 320.4448242,197.5100098 C319.9624023,197.5100098 319.5646362,197.7353516 319.2514648,198.1860352 C318.938324,198.6367188 318.7817383,199.2302246 318.7817383,199.9665527 L318.7817383,203.5212402 L317.5375977,203.5212402 L317.5375977,196.5007324 L318.7817383,196.5007324 L318.7817383,197.9289551 L318.8071289,197.9289551 C319.1625977,196.8963928 319.7762146,196.380127 320.6479492,196.380127 C320.931488,196.380127 321.1494141,196.4118652 321.3017578,196.4753418 Z M322.1777344,200.0871582 C322.1777344,198.9276428 322.5014648,198.0125275 323.1489258,197.3417969 C323.7963867,196.671051 324.6744995,196.3356934 325.7832031,196.3356934 C326.8369141,196.3356934 327.6631775,196.6583557 328.2619629,197.3037109 C328.8607788,197.9490509 329.1601563,198.8408966 329.1601563,199.979248 C329.1601563,201.0879669 328.8406677,201.9829865 328.2016602,202.6643066 C327.5626831,203.3456116 326.7057495,203.6862793 325.6308594,203.6862793 C324.5813904,203.6862793 323.7434998,203.3561859 323.1171875,202.6960449 C322.4909058,202.0358887 322.1777344,201.1662598 322.1777344,200.0871582 Z M323.4472656,200.0490723 C323.4472656,200.8573303 323.6514587,201.4942169 324.0598145,201.9597168 C324.4682007,202.4252014 325.0172729,202.657959 325.7070313,202.657959 C326.4179688,202.657959 326.9596558,202.4304962 327.3320313,201.9755859 C327.7044373,201.5206604 327.890625,200.8679199 327.890625,200.017334 C327.890625,199.1625061 327.7044373,198.5065918 327.3320313,198.0495605 C326.9596558,197.5925293 326.4179688,197.3640137 325.7070313,197.3640137 C325.0087891,197.3640137 324.4576111,197.6031036 324.0534668,198.0812988 C323.649353,198.5594788 323.4472656,199.2154083 323.4472656,200.0490723 Z M341.2651367,203.5212402 L340.0209961,203.5212402 L340.0209961,199.4904785 C340.0209961,198.7287598 339.9025269,198.1839142 339.6655273,197.855957 C339.4285583,197.5279846 339.0392456,197.3640137 338.4975586,197.3640137 C338.0405273,197.3640137 337.6491089,197.577713 337.3232422,198.005127 C336.997406,198.4325256 336.8344727,198.9382324 336.8344727,199.5222168 L336.8344727,203.5212402 L335.590332,203.5212402 L335.590332,199.3635254 C335.590332,198.0305176 335.0761719,197.3640137 334.0478516,197.3640137 C333.5739136,197.3640137 333.1813965,197.5671387 332.8703613,197.9733887 C332.5593262,198.3796387 332.4038086,198.8980255 332.4038086,199.5285645 L332.4038086,203.5212402 L331.159668,203.5212402 L331.159668,196.5007324 L332.4038086,196.5007324 L332.4038086,197.6115723 L332.4291992,197.6115723 C332.9285583,196.7609863 333.6585388,196.3356934 334.6191406,196.3356934 C335.0888672,196.3356934 335.5036011,196.4647522 335.8632813,196.7229004 C336.2229919,196.9810333 336.4726563,197.3301544 336.6123047,197.7702637 C337.1328125,196.8138733 337.9114685,196.3356934 338.9482422,196.3356934 C340.4928589,196.3356934 341.2651367,197.2878418 341.2651367,199.1921387 Z M343.8168945,193.6252441 L354.7348633,193.6252441 L354.7348633,194.6154785 L344.8959961,194.6154785 L344.8959961,203.4768066 L354.9379883,203.4768066 L354.9379883,204.4416504 L343.8168945,204.4416504 Z M345.8735352,196.0119629 L346.5844727,195.3391113 C347.6424255,196.2108459 348.7490234,197.1672363 349.9042969,198.208252 C350.7887573,197.2518616 351.637207,196.2108459 352.449707,195.0852051 L353.3764648,195.7072754 C352.487793,196.8583069 351.5864258,197.9247131 350.6723633,198.9064941 C351.7260742,199.8670959 352.8178711,200.8954163 353.9477539,201.9914551 L353.0717773,202.880127 C352.047699,201.8094788 350.993988,200.7515411 349.9106445,199.7062988 C348.6876831,200.9461975 347.4435425,202.0379944 346.1782227,202.9816895 C345.9750977,202.7193146 345.7042847,202.4442444 345.3657227,202.1564941 C346.694519,201.250885 347.9577026,200.1950684 349.1552734,198.9890137 C348.0931091,197.986084 346.9992065,196.9937286 345.8735352,196.0119629 Z M366.7255859,205.7556152 C365.2148438,204.1052246 364.4594727,202.1078186 364.4594727,199.7634277 C364.4594727,197.3894043 365.2148438,195.3666077 366.7255859,193.6950684 L367.8173828,193.6950684 C366.3151245,195.4089355 365.5639648,197.4274902 365.5639648,199.7507324 C365.5639648,202.0401154 366.3108826,204.041748 367.8046875,205.7556152 Z M372.9907227,203.5212402 L372.9907227,195.1105957 C372.7960815,195.3052521 372.467041,195.5231934 372.0036621,195.7644043 C371.5402832,196.0056152 371.1118164,196.174881 370.7182617,196.2722168 L370.7182617,195.0534668 C371.2387695,194.9095764 371.7952576,194.6800079 372.3876953,194.3647461 C372.9801636,194.049469 373.4350586,193.7521973 373.7524414,193.4729004 L374.222168,193.4729004 L374.222168,203.5212402 Z M382.8930664,193.6887207 L378.1767578,205.1525879 L377.0151367,205.1525879 L381.7314453,193.6887207 Z M386.5620117,203.5212402 L386.5620117,195.1105957 C386.3673706,195.3052521 386.0383301,195.5231934 385.5749512,195.7644043 C385.1115723,196.0056152 384.6831055,196.174881 384.2895508,196.2722168 L384.2895508,195.0534668 C384.8100586,194.9095764 385.3665466,194.6800079 385.9589844,194.3647461 C386.5514526,194.049469 387.0063477,193.7521973 387.3237305,193.4729004 L387.793457,193.4729004 L387.793457,203.5212402 Z M391.3735352,198.798584 C391.3735352,197.0635529 391.6613159,195.7506409 392.2368164,194.8598633 C392.8123474,193.9690704 393.6459961,193.5236816 394.737793,193.5236816 C396.8198242,193.5236816 397.8608398,195.2036896 397.8608398,198.5637207 C397.8608398,200.2225647 397.5678101,201.4910431 396.9816895,202.3691406 C396.3955994,203.2472229 395.5735779,203.6862793 394.515625,203.6862793 C393.5169373,203.6862793 392.7435913,203.2694397 392.1955566,202.435791 C391.6475525,201.6021271 391.3735352,200.3897247 391.3735352,198.798584 Z M392.6430664,198.7414551 C392.6430664,201.3524475 393.3053589,202.657959 394.6298828,202.657959 C395.9332886,202.657959 396.5849609,201.3312988 396.5849609,198.6779785 C396.5849609,195.9315491 395.9459839,194.5583496 394.6679688,194.5583496 C393.3180542,194.5583496 392.6430664,195.952713 392.6430664,198.7414551 Z M400.9077148,205.7556152 L399.815918,205.7556152 C401.3182068,204.0459747 402.0693359,202.0231934 402.0693359,199.6872559 C402.0693359,197.393631 401.3224487,195.3962402 399.8286133,193.6950684 L400.9077148,193.6950684 C402.4100037,195.3327637 403.1611328,197.3301544 403.1611328,199.6872559 C403.1611328,202.0697327 402.4100037,204.0925293 400.9077148,205.7556152 Z" style="fill:rgb(0,0,0);stroke:none" clip-path="url(#clip23)" />
<clipPath id="clip24"><path d="M421,183 L588,183 L588,216 L421,216 L421,183 Z" /></clipPath>
<path d="M424,186 L424,212 L584,212 L584,186 Z" style="fill:rgb(240,240,240);stroke:none" clip-path="url(#clip24)" />
<clipPath id="clip25"><path d="M421,183 L588,183 L588,216 L421,216 L421,183 Z" /></clipPath>
<path d="M424,186 L424,212 L584,212 L584,186 Z" style="fill:none;stroke:rgb(85,142,213);stroke-width:3" clip-path="url(#clip25)" />
<clipPath id="clip26"><path d="M433,188 L576,188 L576,211 L433,211 L433,188 Z" /></clipPath>
<path d="M439.2316895,201.6740723 C439.5321655,201.9364319 439.9341736,202.1522522 440.4377441,202.3215332 C440.9413452,202.490799 441.4195251,202.5754395 441.8723145,202.5754395 C443.2518921,202.5754395 443.9416504,202.084549 443.9416504,201.1027832 C443.9416504,200.827713 443.8676147,200.5801544 443.7194824,200.3601074 C443.5713806,200.1400452 443.3682556,199.9453888 443.1101074,199.776123 C442.8519897,199.606842 442.3674316,199.3465881 441.6564941,198.9953613 C440.6705017,198.5044708 440.0209351,198.0484924 439.7077637,197.6274414 C439.3946228,197.2063751 439.2380371,196.7250061 439.2380371,196.1833496 C439.2380371,195.3666077 439.5660095,194.7191467 440.2219238,194.2409668 C440.8778687,193.7627716 441.7051697,193.5236816 442.7038574,193.5236816 C443.6813965,193.5236816 444.3986816,193.6421661 444.8557129,193.8791504 L444.8557129,195.2629395 C444.2632751,194.8524475 443.5142517,194.6472168 442.6086426,194.6472168 C442.0077515,194.6472168 441.5179138,194.7731018 441.1391602,195.0249023 C440.760437,195.2766876 440.5710449,195.6268616 440.5710449,196.0754395 C440.5710449,196.4732208 440.70224,196.7969513 440.9645996,197.0466309 C441.2269897,197.2962952 441.7961426,197.6369629 442.6721191,198.0686035 C443.6369629,198.5298615 444.3119507,198.9911194 444.6970215,199.4523926 C445.0821228,199.9136505 445.2746582,200.4320374 445.2746582,201.0075684 C445.2746582,201.8708496 444.9615173,202.5331116 444.3352051,202.9943848 C443.7089233,203.4556427 442.8392944,203.6862793 441.7263184,203.6862793 C441.3370056,203.6862793 440.8831482,203.632309 440.3647461,203.5244141 C439.8463745,203.4165039 439.468689,203.282135 439.2316895,203.1213379 Z M453.0505371,203.5212402 L451.8000488,203.5212402 L451.8000488,202.416748 L451.7746582,202.416748 C451.3049316,203.263092 450.5834351,203.6862793 449.6101074,203.6862793 C447.9470215,203.6862793 447.1154785,202.691803 447.1154785,200.7028809 L447.1154785,196.5007324 L448.3469238,196.5007324 L448.3469238,200.5187988 C448.3469238,201.9449005 448.8928223,202.657959 449.9846191,202.657959 C450.5263062,202.657959 450.9642944,202.4580078 451.298584,202.0581055 C451.6329041,201.6582031 451.8000488,201.1535645 451.8000488,200.5441895 L451.8000488,196.5007324 L453.0505371,196.5007324 Z M459.2712402,197.7321777 C459.0639038,197.5840607 458.7782593,197.5100098 458.4143066,197.5100098 C457.9318848,197.5100098 457.5341187,197.7353516 457.2209473,198.1860352 C456.9078064,198.6367188 456.7512207,199.2302246 456.7512207,199.9665527 L456.7512207,203.5212402 L455.5070801,203.5212402 L455.5070801,196.5007324 L456.7512207,196.5007324 L456.7512207,197.9289551 L456.7766113,197.9289551 C457.1320801,196.8963928 457.745697,196.380127 458.6174316,196.380127 C458.9009705,196.380127 459.1188965,196.4118652 459.2712402,196.4753418 Z M466.2727051,196.5007324 L463.4924316,203.5212402 L462.2355957,203.5212402 L459.5949707,196.5007324 L460.9533691,196.5007324 L462.6672363,201.5153809 C462.8068848,201.9173889 462.8894043,202.2538147 462.9147949,202.5246582 L462.9465332,202.5246582 C462.9888611,202.1691895 463.0629272,201.841217 463.1687012,201.5407715 L464.9650879,196.5007324 Z M467.4914551,194.0251465 C467.4914551,193.8050842 467.5665894,193.6199493 467.7167969,193.4697266 C467.8670349,193.3194885 468.0521851,193.2443848 468.2722168,193.2443848 C468.496521,193.2443848 468.6858826,193.3184357 468.840332,193.4665527 C468.994812,193.6146545 469.0720215,193.8008575 469.0720215,194.0251465 C469.0720215,194.2451935 468.994812,194.4282227 468.840332,194.5742188 C468.6858826,194.7202148 468.496521,194.7932129 468.2722168,194.7932129 C468.0479431,194.7932129 467.8617554,194.7202148 467.713623,194.5742188 C467.5655212,194.4282227 467.4914551,194.2451935 467.4914551,194.0251465 Z M467.6374512,203.5212402 L467.6374512,196.5007324 L468.8815918,196.5007324 L468.8815918,203.5212402 Z M476.8605957,196.5007324 L474.0803223,203.5212402 L472.8234863,203.5212402 L470.1828613,196.5007324 L471.5412598,196.5007324 L473.255127,201.5153809 C473.3947754,201.9173889 473.4772949,202.2538147 473.5026855,202.5246582 L473.5344238,202.5246582 C473.5767517,202.1691895 473.6508179,201.841217 473.7565918,201.5407715 L475.5529785,196.5007324 Z M477.7619629,200.0871582 C477.7619629,198.9276428 478.0856934,198.0125275 478.7331543,197.3417969 C479.3806152,196.671051 480.258728,196.3356934 481.3674316,196.3356934 C482.4211426,196.3356934 483.247406,196.6583557 483.8461914,197.3037109 C484.4450073,197.9490509 484.7443848,198.8408966 484.7443848,199.979248 C484.7443848,201.0879669 484.4248962,201.9829865 483.7858887,202.6643066 C483.1469116,203.3456116 482.289978,203.6862793 481.2150879,203.6862793 C480.1656189,203.6862793 479.3277283,203.3561859 478.701416,202.6960449 C478.0751343,202.0358887 477.7619629,201.1662598 477.7619629,200.0871582 Z M479.0314941,200.0490723 C479.0314941,200.8573303 479.2356873,201.4942169 479.644043,201.9597168 C480.0524292,202.4252014 480.6015015,202.657959 481.2912598,202.657959 C482.0021973,202.657959 482.5438843,202.4304962 482.9162598,201.9755859 C483.2886658,201.5206604 483.4748535,200.8679199 483.4748535,200.017334 C483.4748535,199.1625061 483.2886658,198.5065918 482.9162598,198.0495605 C482.5438843,197.5925293 482.0021973,197.3640137 481.2912598,197.3640137 C480.5930176,197.3640137 480.0418396,197.6031036 479.6376953,198.0812988 C479.2335815,198.5594788 479.0314941,199.2154083 479.0314941,200.0490723 Z M490.5080566,197.7321777 C490.3007202,197.5840607 490.0150757,197.5100098 489.651123,197.5100098 C489.1687012,197.5100098 488.7709351,197.7353516 488.4577637,198.1860352 C488.1446228,198.6367188 487.9880371,199.2302246 487.9880371,199.9665527 L487.9880371,203.5212402 L486.7438965,203.5212402 L486.7438965,196.5007324 L487.9880371,196.5007324 L487.9880371,197.9289551 L488.0134277,197.9289551 C488.3688965,196.8963928 488.9825134,196.380127 489.854248,196.380127 C490.1377869,196.380127 490.3557129,196.4118652 490.5080566,196.4753418 Z M499.1853027,203.451416 C498.9144897,203.5995178 498.5484314,203.673584 498.0871582,203.673584 C496.8303223,203.673584 496.2019043,202.9774475 496.2019043,201.5852051 L496.2019043,197.5290527 L494.9958496,197.5290527 L494.9958496,196.5007324 L496.2019043,196.5007324 L496.2019043,194.8122559 L497.4396973,194.4187012 L497.4396973,196.5007324 L499.1853027,196.5007324 L499.1853027,197.5290527 L497.4396973,197.5290527 L497.4396973,201.3630371 C497.4396973,201.824295 497.5180054,202.1543732 497.6745605,202.3532715 C497.8311462,202.5521545 498.0914001,202.6516113 498.4553223,202.6516113 C498.7346191,202.6516113 498.9779663,202.5733185 499.1853027,202.416748 Z M500.3342285,200.0871582 C500.3342285,198.9276428 500.657959,198.0125275 501.3054199,197.3417969 C501.9528809,196.671051 502.8309937,196.3356934 503.9396973,196.3356934 C504.9934082,196.3356934 505.8196716,196.6583557 506.418457,197.3037109 C507.0172729,197.9490509 507.3166504,198.8408966 507.3166504,199.979248 C507.3166504,201.0879669 506.9971619,201.9829865 506.3581543,202.6643066 C505.7191772,203.3456116 504.8622437,203.6862793 503.7873535,203.6862793 C502.7378845,203.6862793 501.8999939,203.3561859 501.2736816,202.6960449 C500.6473999,202.0358887 500.3342285,201.1662598 500.3342285,200.0871582 Z M501.6037598,200.0490723 C501.6037598,200.8573303 501.8079529,201.4942169 502.2163086,201.9597168 C502.6246948,202.4252014 503.1737671,202.657959 503.8635254,202.657959 C504.5744629,202.657959 505.1161499,202.4304962 505.4885254,201.9755859 C505.8609314,201.5206604 506.0471191,200.8679199 506.0471191,200.017334 C506.0471191,199.1625061 505.8609314,198.5065918 505.4885254,198.0495605 C505.1161499,197.5925293 504.5744629,197.3640137 503.8635254,197.3640137 C503.1652832,197.3640137 502.6141052,197.6031036 502.2099609,198.0812988 C501.8058472,198.5594788 501.6037598,199.2154083 501.6037598,200.0490723 Z M509.4240723,193.6252441 L520.342041,193.6252441 L520.342041,194.6154785 L510.5031738,194.6154785 L510.5031738,203.4768066 L520.545166,203.4768066 L520.545166,204.4416504 L509.4240723,204.4416504 Z M511.4807129,196.0119629 L512.1916504,195.3391113 C513.2496338,196.2108459 514.3562012,197.1672363 515.5114746,198.208252 C516.3959351,197.2518616 517.2443848,196.2108459 518.0568848,195.0852051 L518.9836426,195.7072754 C518.0949707,196.8583069 517.1936035,197.9247131 516.279541,198.9064941 C517.333252,199.8670959 518.4250488,200.8954163 519.5549316,201.9914551 L518.6789551,202.880127 C517.6549072,201.8094788 516.6011963,200.7515411 515.5178223,199.7062988 C514.2948608,200.9461975 513.0507202,202.0379944 511.7854004,202.9816895 C511.5822754,202.7193146 511.3114624,202.4442444 510.9729004,202.1564941 C512.3016968,201.250885 513.5648804,200.1950684 514.7624512,198.9890137 C513.7003174,197.986084 512.6063843,196.9937286 511.4807129,196.0119629 Z M532.3327637,205.7556152 C530.8220215,204.1052246 530.0666504,202.1078186 530.0666504,199.7634277 C530.0666504,197.3894043 530.8220215,195.3666077 532.3327637,193.6950684 L533.4245605,193.6950684 C531.9223022,195.4089355 531.1711426,197.4274902 531.1711426,199.7507324 C531.1711426,202.0401154 531.9180908,204.041748 533.4118652,205.7556152 Z M538.5979004,203.5212402 L538.5979004,195.1105957 C538.4032593,195.3052521 538.0742188,195.5231934 537.6108398,195.7644043 C537.1474609,196.0056152 536.7189941,196.174881 536.3254395,196.2722168 L536.3254395,195.0534668 C536.8459473,194.9095764 537.4024658,194.6800079 537.994873,194.3647461 C538.5873413,194.049469 539.0422363,193.7521973 539.3596191,193.4729004 L539.8293457,193.4729004 L539.8293457,203.5212402 Z M548.5002441,193.6887207 L543.7839355,205.1525879 L542.6223145,205.1525879 L547.338623,193.6887207 Z M552.1691895,203.5212402 L552.1691895,195.1105957 C551.9745483,195.3052521 551.6455078,195.5231934 551.1821289,195.7644043 C550.71875,196.0056152 550.2902832,196.174881 549.8967285,196.2722168 L549.8967285,195.0534668 C550.4172363,194.9095764 550.9737549,194.6800079 551.5661621,194.3647461 C552.1586304,194.049469 552.6135254,193.7521973 552.9309082,193.4729004 L553.4006348,193.4729004 L553.4006348,203.5212402 Z M556.9807129,198.798584 C556.9807129,197.0635529 557.2684937,195.7506409 557.8439941,194.8598633 C558.4195557,193.9690704 559.2531738,193.5236816 560.3449707,193.5236816 C562.427002,193.5236816 563.4680176,195.2036896 563.4680176,198.5637207 C563.4680176,200.2225647 563.1749878,201.4910431 562.5888672,202.3691406 C562.0028076,203.2472229 561.1807861,203.6862793 560.1228027,203.6862793 C559.1241455,203.6862793 558.350769,203.2694397 557.8027344,202.435791 C557.2547607,201.6021271 556.9807129,200.3897247 556.9807129,198.798584 Z M558.2502441,198.7414551 C558.2502441,201.3524475 558.9125366,202.657959 560.2370605,202.657959 C561.5404663,202.657959 562.1921387,201.3312988 562.1921387,198.6779785 C562.1921387,195.9315491 561.5531616,194.5583496 560.2751465,194.5583496 C558.9252319,194.5583496 558.2502441,195.952713 558.2502441,198.7414551 Z M566.5148926,205.7556152 L565.4230957,205.7556152 C566.925415,204.0459747 567.6765137,202.0231934 567.6765137,199.6872559 C567.6765137,197.393631 566.9296265,195.3962402 565.435791,193.6950684 L566.5148926,193.6950684 C568.0172119,195.3327637 568.7683105,197.3301544 568.7683105,199.6872559 C568.7683105,202.0697327 568.0172119,204.0925293 566.5148926,205.7556152 Z" style="fill:rgb(0,0,0);stroke:none" clip-path="url(#clip26)" />
<clipPath id="clip27"><path d="M596,120 L793,120 L793,166 L596,166 L596,120 Z" /></clipPath>
<path d="M598,122 L598,163 L790,163 L790,122 Z" style="fill:rgb(220,230,242);stroke:none" clip-path="url(#clip27)" />
<clipPath id="clip28"><path d="M596,120 L793,120 L793,166 L596,166 L596,120 Z" /></clipPath>
<path d="M598,122 L598,163 L790,163 L790,122 Z" style="fill:none;stroke:rgb(85,142,213);stroke-width:2" clip-path="url(#clip28)" />
<clipPath id="clip29"><path d="M610,129 L779,129 L779,157 L610,157 L610,129 Z" /></clipPath>
<path d="M616.2258301,140.3312988 L622.2355957,140.3312988 L622.2355957,137.9074707 L618.0187988,137.9074707 L618.0187988,136.7121582 L622.2355957,136.7121582 L622.2355957,134.5539551 L623.5305176,134.5539551 L623.5305176,136.7121582 L627.6809082,136.7121582 L627.6809082,137.9074707 L623.5305176,137.9074707 L623.5305176,140.3312988 L625.8464355,140.3312988 C627.335083,139.2577209 628.7821655,137.9129944 630.1877441,136.2971191 L631.2004395,137.1936035 C630.1158447,138.4110413 629.0588379,139.4569397 628.029541,140.3312988 L632.1633301,140.3312988 L632.1633301,141.5266113 L626.4855957,141.5266113 C625.1187744,142.489502 623.4586182,143.4247131 621.505127,144.3322754 L621.505127,145.8845215 C624.2167358,145.2536621 626.6627197,144.498291 628.8430176,143.6184082 L629.3742676,144.8635254 C626.9449463,145.6991272 624.3218994,146.4544983 621.505127,147.1296387 L621.505127,148.1506348 C621.505127,148.7150879 621.770752,149.0028381 622.302002,149.013916 L627.763916,149.013916 C628.6161499,149.013916 629.1086426,148.6154785 629.2414551,147.8186035 C629.3300171,147.2984161 629.4185791,146.4794006 629.5070801,145.3615723 C629.9498291,145.5386505 630.4146729,145.7157288 630.9016113,145.8928223 C630.7577515,147.0327911 630.6359863,147.8628693 630.536377,148.3830566 C630.2929077,149.6226349 629.4517822,150.2424316 628.0129395,150.2424316 L622.0861816,150.2424316 C620.8355713,150.2424316 620.2102051,149.5617676 620.2102051,148.2004395 L620.2102051,144.9133301 C619.0812988,145.3947754 617.8638916,145.8706818 616.5578613,146.3410645 C616.3365479,145.8872833 616.1096191,145.4611816 615.8771973,145.0627441 C619.1311035,144.0113068 621.8482666,142.8325958 624.0285645,141.5266113 L616.2258301,141.5266113 Z M633.4831543,145.2785645 L636.1560059,145.2785645 L636.1560059,140.5305176 L642.032959,140.5305176 L642.032959,137.5754395 L637.1520996,137.5754395 C636.4050293,138.920166 635.569458,140.1597443 634.6452637,141.2941895 C634.3575439,140.9842834 634.0144043,140.6743927 633.6159668,140.364502 C635.1876221,138.5936584 636.366333,136.6070099 637.1520996,134.404541 L638.5134277,134.786377 C638.2810059,135.3342285 638.0375366,135.8654785 637.782959,136.380127 L649.204834,136.380127 L649.204834,137.5754395 L643.3776855,137.5754395 L643.3776855,140.5305176 L648.9226074,140.5305176 L648.9226074,141.692627 L643.3776855,141.692627 L643.3776855,145.2785645 L649.9519043,145.2785645 L649.9519043,146.473877 L643.3776855,146.473877 L643.3776855,150.9562988 L642.032959,150.9562988 L642.032959,146.473877 L633.4831543,146.473877 Z M637.4675293,145.2785645 L642.032959,145.2785645 L642.032959,141.692627 L637.4675293,141.692627 Z M655.5881348,140.3312988 L659.5144043,139.8996582 C659.3815918,138.4940491 659.2902832,136.7398224 659.2404785,134.6369629 L660.6848145,134.6369629 C660.6627197,136.2915802 660.7318726,137.9960022 660.892334,139.7502441 L666.9768066,139.0861816 L667.1262207,140.3146973 L661.0251465,140.9870605 C661.6505127,145.5690918 662.854126,148.3166504 664.6359863,149.2297363 C665.1229858,149.4289551 665.4384155,149.2684631 665.5822754,148.748291 C665.7926025,147.9624786 665.9696655,147.0715332 666.1135254,146.0754395 C666.5783691,146.2746582 667.0211182,146.4351349 667.4416504,146.5568848 C667.2756348,147.6304474 667.076416,148.5822754 666.8439941,149.4123535 C666.545166,150.3752441 665.953064,150.8456116 665.067627,150.8234863 C664.1158447,150.7902832 663.208252,150.2202911 662.3449707,149.1135254 C661.0611572,147.6193848 660.1674194,144.9603577 659.6638184,141.1364746 L655.7873535,141.5598145 Z M650.7736816,142.5061035 C652.5002441,140.1818848 653.8671265,137.5256348 654.8742676,134.5373535 L656.2023926,135.0021973 C655.7098999,136.2915802 655.1952515,137.4896545 654.6584473,138.5964355 L654.6584473,150.9064941 L653.2971191,150.9064941 L653.2971191,141.1447754 C652.6662598,142.2017365 652.0133057,143.1535645 651.3381348,144.0002441 C651.1832275,143.546463 650.9950562,143.0484161 650.7736816,142.5061035 Z M662.2121582,135.9484863 L663.0754395,135.0686035 C664.0494385,135.8101349 665.0455322,136.6346741 666.0637207,137.5422363 L665.0510254,138.5715332 C664.1213379,137.6197052 663.1750488,136.7453613 662.2121582,135.9484863 Z M682.2253418,151.595459 C680.2497559,149.4372559 679.2619629,146.8252716 679.2619629,143.7595215 C679.2619629,140.6550293 680.2497559,138.0098419 682.2253418,135.8239746 L683.6530762,135.8239746 C681.6885986,138.0651855 680.7062988,140.704834 680.7062988,143.7429199 C680.7062988,146.7367249 681.6830444,149.354248 683.6364746,151.595459 Z M692.767334,139.185791 C692.767334,138.4940491 692.5487671,137.9503479 692.1115723,137.5546875 C691.6744385,137.1590118 691.0795288,136.9611816 690.3269043,136.9611816 C689.7956543,136.9611816 689.2589111,137.096756 688.7165527,137.3679199 C688.1742554,137.6390686 687.6679077,138.0264435 687.1975098,138.5300293 L687.1975098,136.9528809 C687.618103,136.5157013 688.0953979,136.1809082 688.6293945,135.9484863 C689.1634521,135.7160645 689.7901611,135.5998535 690.5095215,135.5998535 C691.6716309,135.5998535 692.6068726,135.9111328 693.3151855,136.5336914 C694.0235596,137.15625 694.3776855,137.9987793 694.3776855,139.0612793 C694.3776855,140.0075684 694.1605225,140.8265686 693.7260742,141.5183105 C693.291687,142.2100372 692.5487671,142.9183655 691.4973145,143.6433105 C690.4237671,144.3848419 689.7057495,144.9160919 689.3432617,145.2370605 C688.980835,145.5580139 688.7276611,145.8651428 688.5837402,146.1584473 C688.4398804,146.4517365 688.3679199,146.80867 688.3679199,147.229248 L694.7595215,147.229248 L694.7595215,148.673584 L686.6745605,148.673584 L686.6745605,148.0344238 C686.6745605,147.2928772 686.7755737,146.6634064 686.9775391,146.1459961 C687.1795654,145.6285706 687.5129395,145.125 687.9777832,144.6352539 C688.442627,144.1455078 689.1676025,143.5575256 690.1525879,142.8713379 C691.15979,142.1629944 691.8473511,141.5418243 692.215332,141.0078125 C692.583374,140.4737854 692.767334,139.8664551 692.767334,139.185791 Z M703.3674316,135.8156738 L697.1999512,150.8068848 L695.6809082,150.8068848 L701.8483887,135.8156738 Z M704.6208496,146.5236816 C705.5007324,147.2043457 706.4940186,147.5446777 707.6008301,147.5446777 C708.4862061,147.5446777 709.1876221,147.3274689 709.7050781,146.8930664 C710.2225342,146.4586487 710.4812012,145.8762207 710.4812012,145.145752 C710.4812012,143.5187988 709.3162842,142.7053223 706.9865723,142.7053223 L705.9157715,142.7053223 L705.9157715,141.3605957 L706.9367676,141.3605957 C709.0008545,141.3605957 710.032959,140.5969238 710.032959,139.0695801 C710.032959,137.6584473 709.2443848,136.9528809 707.6672363,136.9528809 C706.7652588,136.9528809 705.9157715,137.2572327 705.1188965,137.8659668 L705.1188965,136.3303223 C705.960083,135.843338 706.9422607,135.5998535 708.0656738,135.5998535 C709.161377,135.5998535 710.0412598,135.8862305 710.7053223,136.4589844 C711.3693848,137.0317383 711.701416,137.7746582 711.701416,138.6877441 C711.701416,140.3700256 710.8436279,141.4519043 709.1281738,141.9333496 L709.1281738,141.9665527 C710.0578613,142.0661621 710.7924805,142.394043 711.3320313,142.9501953 C711.871582,143.5063477 712.1413574,144.1994629 712.1413574,145.029541 C712.1413574,146.1861115 711.7249756,147.1185608 710.8920898,147.8269043 C710.0592041,148.5352325 708.9510498,148.8894043 707.567627,148.8894043 C706.3502197,148.8894043 705.3679199,148.6625061 704.6208496,148.2087402 Z M718.9147949,141.5266113 C720.2207642,139.7115021 721.3939209,137.4204865 722.4343262,134.6535645 L723.6462402,135.0354004 C723.2644043,135.998291 722.87146,136.9169006 722.4675293,137.7912598 L730.1872559,137.7912598 L730.1872559,138.920166 L726.6179199,138.920166 L726.6179199,141.427002 L729.8718262,141.427002 L729.8718262,142.489502 L726.6179199,142.489502 L726.6179199,144.9963379 L729.8552246,144.9963379 L729.8552246,146.0588379 L726.6179199,146.0588379 L726.6179199,148.5822754 L730.369873,148.5822754 L730.369873,149.6447754 L722.3347168,149.6447754 L722.3347168,150.873291 L721.072998,150.873291 L721.072998,140.5305176 C720.6690063,141.2499084 720.2539673,141.9361115 719.8278809,142.5891113 C719.6065063,142.2681427 719.302124,141.9139709 718.9147949,141.5266113 Z M713.9177246,147.4035645 C714.6924438,147.2098694 715.5114746,146.9940491 716.3747559,146.7561035 L716.3747559,139.8664551 L714.1501465,139.8664551 L714.1501465,138.6877441 L716.3747559,138.6877441 L716.3747559,134.7033691 L717.6032715,134.7033691 L717.6032715,138.6877441 L719.744873,138.6877441 L719.744873,139.8664551 L717.6032715,139.8664551 L717.6032715,146.4157715 C718.4001465,146.1888733 719.2357178,145.942627 720.1101074,145.677002 C720.1322021,146.1861115 720.1599121,146.623291 720.1931152,146.9885254 C718.1898193,147.5529785 716.2474365,148.1284943 714.3659668,148.7150879 Z M722.3347168,148.5822754 L725.3562012,148.5822754 L725.3562012,146.0588379 L722.3347168,146.0588379 Z M722.3347168,144.9963379 L725.3562012,144.9963379 L725.3562012,142.489502 L722.3347168,142.489502 Z M722.3347168,141.427002 L725.3562012,141.427002 L725.3562012,138.920166 L722.3347168,138.920166 Z M724.7419434,135.1350098 L725.7712402,134.5871582 C726.4020996,135.5279083 726.9277954,136.3690491 727.3483887,137.1105957 L726.2028809,137.7414551 C725.7490845,136.8560333 725.262085,135.9872131 724.7419434,135.1350098 Z M732.0881348,148.7648926 L738.9943848,148.7648926 L738.9943848,144.4152832 L733.7980957,144.4152832 L733.7980957,143.1535645 L745.6184082,143.1535645 L745.6184082,144.4152832 L740.4055176,144.4152832 L740.4055176,148.7648926 L747.3283691,148.7648926 L747.3283691,150.0266113 L732.0881348,150.0266113 Z M732.1877441,136.645752 L739.401123,136.645752 C739.1465454,136.1643066 738.8283691,135.6219788 738.4465332,135.0187988 L739.6750488,134.4211426 C740.1287842,135.0741272 740.5217285,135.7160645 740.8537598,136.3469238 L740.2478027,136.645752 L747.2453613,136.645752 L747.2453613,139.8664551 L745.8840332,139.8664551 L745.8840332,137.9074707 L733.5490723,137.9074707 L733.5490723,139.8664551 L732.1877441,139.8664551 Z M737.5334473,138.7375488 L738.5129395,139.6838379 C736.3657837,141.3661194 734.3459473,142.7385254 732.4533691,143.8010254 C732.1102295,143.3472443 731.7781982,142.9875488 731.4572754,142.7219238 C733.6265259,141.6151428 735.6519165,140.2870178 737.5334473,138.7375488 Z M741.8000488,138.7541504 C744.1242676,140.1376038 746.144104,141.4436035 747.8596191,142.6721191 L746.9133301,143.817627 C745.2420654,142.5116272 743.2720337,141.1447754 741.0031738,139.717041 Z M753.6618652,138.9865723 L760.7009277,138.9865723 L760.7009277,147.2043457 L754.8571777,147.2043457 L754.8571777,148.2336426 L753.6618652,148.2336426 Z M755.0563965,136.8449707 L755.0563965,135.5998535 L764.6853027,135.5998535 L764.6853027,148.748291 C764.6853027,150.1428223 763.8939209,150.8400879 762.3112793,150.8400879 C761.6693115,150.8400879 760.828186,150.82901 759.7878418,150.8068848 C759.7435303,150.4748535 759.6550293,150.0266113 759.5222168,149.4621582 C760.4407959,149.5285645 761.3151855,149.5617676 762.1452637,149.5617676 C762.9753418,149.5617676 763.3903809,149.1577911 763.3903809,148.3498535 L763.3903809,136.8449707 Z M749.8269043,137.8244629 L751.1218262,137.8244629 L751.1218262,150.8400879 L749.8269043,150.8400879 Z M754.8571777,146.0256348 L759.5056152,146.0256348 L759.5056152,143.6682129 L754.8571777,143.6682129 Z M759.5056152,140.1652832 L754.8571777,140.1652832 L754.8571777,142.489502 L759.5056152,142.489502 Z M750.6901855,135.3840332 L751.6364746,134.5373535 C752.4776001,135.3342285 753.2578735,136.108963 753.9772949,136.8615723 L752.8981934,137.8078613 C752.2230225,137.0109863 751.4870605,136.2030334 750.6901855,135.3840332 Z M769.1760254,151.595459 L767.748291,151.595459 C769.7127686,149.3597717 770.6950684,146.7145996 770.6950684,143.6599121 C770.6950684,140.660553 769.7183228,138.048584 767.7648926,135.8239746 L769.1760254,135.8239746 C771.1405029,137.9655762 772.1228027,140.5775452 772.1228027,143.6599121 C772.1228027,146.7754669 771.1405029,149.4206543 769.1760254,151.595459 Z" style="fill:rgb(23,55,94);stroke:none" clip-path="url(#clip29)" />
<clipPath id="clip30"><path d="M801,120 L887,120 L887,166 L801,166 L801,120 Z" /></clipPath>
<path d="M803,122 L803,163 L884,163 L884,122 Z" style="fill:rgb(220,230,242);stroke:none" clip-path="url(#clip30)" />
<clipPath id="clip31"><path d="M801,120 L887,120 L887,166 L801,166 L801,120 Z" /></clipPath>
<path d="M803,122 L803,163 L884,163 L884,122 Z" style="fill:none;stroke:rgb(85,142,213);stroke-width:2" clip-path="url(#clip31)" />
<clipPath id="clip32"><path d="M815,129 L873,129 L873,157 L815,157 L815,129 Z" /></clipPath>
<path d="M832.4765625,138.940918 L833.2900391,140.1030273 C831.9508057,140.9607697 830.4400635,141.9291992 828.7578125,143.0083008 C830.1025391,145.199707 831.9508057,147.0092773 834.3027344,148.4370117 C833.9595947,148.8686523 833.6220703,149.294754 833.2900391,149.715332 C830.2740479,147.6567383 828.1546021,144.9894104 826.9316406,141.7133789 L826.9316406,148.769043 C826.9316406,150.2963867 826.2232666,151.0600586 824.8066406,151.0600586 C824.109375,151.0600586 823.3345947,151.0545197 822.4824219,151.043457 C822.4381104,150.7114258 822.3551025,150.2299805 822.2333984,149.5991211 C823.1741333,149.6876526 823.932251,149.7319336 824.5078125,149.7319336 C825.2382813,149.7319336 825.6035156,149.3777618 825.6035156,148.6694336 L825.6035156,139.5717773 L819.9423828,139.5717773 L819.9423828,138.2768555 L826.9316406,138.2768555 L826.9316406,138.8330078 C827.2415161,139.9010315 827.6343994,140.905426 828.1103516,141.8461914 C829.4771729,141.0271759 830.9326172,140.0587463 832.4765625,138.940918 Z M818.4150391,141.3481445 L823.7773438,141.3481445 L823.7773438,142.4438477 C822.8919067,145.8194885 821.1875,148.2488556 818.6640625,149.7319336 C818.4205322,149.410965 818.0996094,149.0401917 817.7011719,148.6196289 C820.0585938,147.3579102 821.6025391,145.3546448 822.3330078,142.6098633 L818.4150391,142.6098633 Z M823.1464844,135.902832 L823.6943359,134.7739258 C825.2216797,135.216629 826.8430786,135.7146759 828.5585938,136.2680664 L827.9941406,137.5795898 C826.2786255,136.9376526 824.6627197,136.3787384 823.1464844,135.902832 Z M840.503418,134.956543 L841.8481445,135.371582 C841.6046143,136.0467072 841.3445435,136.6886292 841.0678711,137.2973633 L846.9780273,137.2973633 L846.9780273,138.559082 C846.5961914,140.2136993 846.0012817,141.7521057 845.1933594,143.1743164 C846.6265869,146.3396759 848.8318481,148.5310822 851.809082,149.7485352 C851.3884888,150.1801758 850.9900513,150.6173401 850.6137695,151.0600586 C847.852356,149.5880432 845.788208,147.3745117 844.4213867,144.4194336 C842.5564575,147.1365509 839.8338013,149.3943634 836.253418,151.1928711 C836.0098877,150.849762 835.6778564,150.4402618 835.2573242,149.9643555 C840.8575439,147.3081055 844.28302,143.5063477 845.5336914,138.559082 L840.4619141,138.559082 C839.5377197,140.3243713 838.4669189,141.7797852 837.2495117,142.925293 C836.9063721,142.5600586 836.5632935,142.233551 836.2202148,141.9458008 C838.1016846,140.1638947 839.5294189,137.834137 840.503418,134.956543 Z M857.4453125,140.6508789 L861.371582,140.2192383 C861.2387695,138.8136292 861.1474609,137.0594025 861.0976563,134.956543 L862.5419922,134.956543 C862.5198364,136.6111603 862.5889893,138.3155823 862.7495117,140.0698242 L868.8339844,139.4057617 L868.9833984,140.6342773 L862.8823242,141.3066406 C863.5076294,145.8886719 864.7112427,148.6362305 866.4931641,149.5493164 C866.9801025,149.7485352 867.2955322,149.5880432 867.4394531,149.0678711 C867.6497192,148.2820587 867.8267822,147.3911133 867.9707031,146.3950195 C868.4355469,146.5942383 868.8782349,146.754715 869.2988281,146.8764648 C869.1328125,147.9500275 868.9335938,148.9018555 868.7011719,149.7319336 C868.4023438,150.6948242 867.8101807,151.1651917 866.9248047,151.1430664 C865.9729614,151.1098633 865.0654297,150.5398712 864.2021484,149.4331055 C862.9182739,147.9389648 862.0245361,145.2799377 861.5209961,141.4560547 L857.6445313,141.8793945 Z M852.6308594,142.8256836 C854.3574219,140.5014648 855.7242432,137.8452148 856.7314453,134.8569336 L858.0595703,135.3217773 C857.5670166,136.6111603 857.0523682,137.8092346 856.515625,138.9160156 L856.515625,151.2260742 L855.1542969,151.2260742 L855.1542969,141.4643555 C854.5234375,142.5213165 853.8704224,143.4731445 853.1953125,144.3198242 C853.0403442,143.8660431 852.8521729,143.3679962 852.6308594,142.8256836 Z M864.0693359,136.2680664 L864.9326172,135.3881836 C865.9065552,136.129715 866.9026489,136.9542542 867.9208984,137.8618164 L866.9082031,138.8911133 C865.9785156,137.9392853 865.0322266,137.0649414 864.0693359,136.2680664 Z" style="fill:rgb(23,55,94);stroke:none" clip-path="url(#clip32)" />
<clipPath id="clip33"><path d="M169,171 L284,171 L284,231 L169,231 L169,171 Z" /></clipPath>
<path d="M173.9464417,212 C231,227 240,175 280.5625,186" style="fill:none;stroke:rgb(119,147,60);stroke-width:3;stroke-dasharray:18,9;stroke-dashoffset:0" clip-path="url(#clip33)" />
<clipPath id="clip34"><path d="M169,171 L284,171 L284,231 L169,231 L169,171 Z" /></clipPath>
<path d="M270.8954773,188.559021 L280.5625,186 L273.5128174,178.9076233 Z" style="fill:rgb(119,147,60);stroke:none" clip-path="url(#clip34)" />
<clipPath id="clip35"><path d="M169,171 L284,171 L284,231 L169,231 L169,171 Z" /></clipPath>
<path d="M270.8954773,188.559021 L280.5625,186 L273.5128174,178.9076233 Z" style="fill:none;stroke:rgb(119,147,60);stroke-width:3" clip-path="url(#clip35)" />
<clipPath id="clip36"><path d="M373,174 L458,174 L458,226 L373,226 L373,174 Z" /></clipPath>
<path d="M377.9565125,212 C416,222 424,178 454.4761963,186" style="fill:none;stroke:rgb(119,147,60);stroke-width:3;stroke-dasharray:18,9;stroke-dashoffset:0" clip-path="url(#clip36)" />
<clipPath id="clip37"><path d="M373,174 L458,174 L458,226 L373,226 L373,174 Z" /></clipPath>
<path d="M444.8302307,188.6373291 L454.4761963,186 L447.3692017,178.9650269 Z" style="fill:rgb(119,147,60);stroke:none" clip-path="url(#clip37)" />
<clipPath id="clip38"><path d="M373,174 L458,174 L458,226 L373,226 L373,174 Z" /></clipPath>
<path d="M444.8302307,188.6373291 L454.4761963,186 L447.3692017,178.9650269 Z" style="fill:none;stroke:rgb(119,147,60);stroke-width:3" clip-path="url(#clip38)" />
</svg>
